<svg version="1.1" id="Layer_1" xmlns="http://www.w3.org/2000/svg" xmlns:xlink="http://www.w3.org/1999/xlink" x="0px" y="0px"
	 width="100%" viewBox="0 0 2584 523" enable-background="new 0 0 2584 523" xml:space="preserve">
<path fill="#070A0F" opacity="1.000000" stroke="none" 
	d="
M1902.000000,524.000000 
	C1268.000122,524.000000 634.500244,524.000000 1.000255,524.000000 
	C1.000170,349.666809 1.000170,175.333618 1.000085,1.000325 
	C862.333008,1.000217 1723.666016,1.000217 2584.999268,1.000108 
	C2584.999512,175.333008 2584.999512,349.666016 2584.999756,523.999512 
	C2357.500000,524.000000 2130.000000,524.000000 1902.000000,524.000000 
M215.245178,404.061066 
	C215.472046,404.469086 215.698914,404.877106 216.708496,405.626587 
	C218.702988,405.721252 220.697479,405.898560 222.691971,405.898438 
	C268.803528,405.895844 314.915070,405.881348 361.026581,405.830536 
	C363.005188,405.828339 364.983368,405.457794 367.642883,405.595703 
	C400.135681,403.946167 428.825531,392.466583 452.709045,370.535889 
	C501.066101,326.132690 515.902893,256.480347 490.220215,196.036880 
	C467.546265,142.674332 417.851288,104.714821 355.546600,105.820961 
	C311.736572,106.598755 267.901703,105.970703 224.077927,105.991295 
	C222.711655,105.991943 221.345474,106.224152 219.390213,106.401978 
	C220.363510,108.078987 220.873901,109.081322 221.494827,110.009750 
	C230.289642,123.160370 239.201645,136.234436 247.833466,149.491013 
	C249.978592,152.785477 252.268570,154.148056 256.301636,154.130447 
	C290.293610,153.982040 324.286591,154.090866 358.279297,154.083496 
	C369.413239,154.081070 380.143646,156.202316 390.503326,160.158600 
	C445.837708,181.290451 471.767883,249.578629 443.821411,303.272186 
	C426.006897,337.499237 397.546478,356.772491 357.918427,356.948914 
	C322.260223,357.107635 286.600555,357.051331 250.942245,356.909973 
	C247.136459,356.894897 244.769928,358.014374 242.819595,361.258118 
	C239.475937,366.819244 235.685715,372.109680 232.198044,377.587036 
	C226.668701,386.270844 221.234146,395.015015 215.783295,403.758087 
	C215.783295,403.758087 215.764740,403.777985 215.245178,404.061066 
M216.696823,279.703705 
	C226.006836,279.714539 235.316986,279.759827 244.626846,279.728607 
	C261.574646,279.671753 278.522308,279.569519 295.916473,280.134552 
	C295.501709,281.551483 295.421356,283.201721 294.620728,284.349457 
	C286.144501,296.501221 277.545013,308.566956 269.010590,320.678284 
	C268.324554,321.651855 267.868500,322.787506 266.903656,324.604858 
	C285.272644,324.604858 302.722839,324.672699 320.170258,324.484772 
	C321.676971,324.468567 323.503113,323.057068 324.612030,321.794189 
	C342.629059,301.275696 360.497681,280.626648 378.564178,260.152161 
	C381.108765,257.268402 381.020416,255.519180 378.533661,252.657028 
	C360.733704,232.170029 343.058990,211.573105 325.509277,190.871353 
	C323.342041,188.314850 321.193665,187.181778 317.904388,187.201416 
	C302.912598,187.290878 287.919708,187.188705 272.927246,187.199631 
	C271.559937,187.200623 270.192871,187.515793 267.911652,187.798248 
	C278.105835,202.381409 287.723267,216.139496 297.763184,230.501984 
	C295.623047,230.633209 294.647095,230.744812 293.671082,230.745331 
	C268.852875,230.758530 244.034210,230.834229 219.216904,230.684662 
	C215.447128,230.661942 214.320190,231.873764 214.367554,235.532684 
	C214.540070,248.857498 214.421707,262.185883 214.525970,275.512054 
	C214.536133,276.812439 215.324631,278.106689 216.696823,279.703705 
M2056.539307,280.277161 
	C2056.538330,264.445526 2056.538330,248.613892 2056.536621,232.782257 
	C2056.533447,204.285019 2056.471680,175.787552 2056.594482,147.290848 
	C2056.610840,143.529953 2055.801514,141.803558 2051.632812,142.101410 
	C2046.658325,142.456802 2041.616333,142.492691 2036.647095,142.107010 
	C2032.245239,141.765366 2030.967407,143.135086 2031.003540,147.617996 
	C2031.241943,177.280060 2031.192017,206.944458 2031.214233,236.608124 
	C2031.215576,238.303406 2031.024536,239.998825 2030.922974,241.694183 
	C2030.378784,241.971130 2029.834595,242.248077 2029.290405,242.525024 
	C2029.099243,241.863617 2029.068726,241.088913 2028.693848,240.556870 
	C2008.360596,211.698166 1987.945190,182.897217 1967.665039,154.001282 
	C1959.423340,142.258270 1959.554321,142.167480 1945.401855,142.201859 
	C1943.235474,142.207123 1941.034668,142.439697 1938.909912,142.140564 
	C1934.772705,141.558090 1933.886963,143.337784 1933.911743,147.199173 
	C1934.069092,171.695801 1933.988403,196.193939 1933.993408,220.691574 
	C1933.997681,241.189560 1934.093384,261.688141 1933.946777,282.185028 
	C1933.920044,285.923553 1935.077759,287.228668 1938.801025,287.012146 
	C1943.451904,286.741638 1948.129761,286.937958 1952.796021,286.930115 
	C1959.403198,286.919006 1959.411133,286.917969 1959.414551,280.521759 
	C1959.429565,252.524521 1959.429199,224.527283 1959.471313,196.530090 
	C1959.474609,194.318024 1959.760864,192.106384 1959.915527,189.894547 
	C1962.365601,191.153381 1963.656250,192.757874 1964.861328,194.424316 
	C1986.231323,223.976654 2007.580444,253.544174 2028.984985,283.071503 
	C2030.010864,284.486664 2031.460449,286.571686 2032.787964,286.629974 
	C2040.520752,286.969574 2048.275879,286.796295 2056.282471,286.796295 
	C2056.387207,284.495117 2056.461914,282.855621 2056.539307,280.277161 
M811.499023,286.792175 
	C814.995972,286.813690 818.492920,286.834991 821.989868,286.856720 
	C838.041321,286.956543 855.134216,275.273804 854.732605,254.120270 
	C854.280701,230.315140 854.549377,206.496582 854.476746,182.683945 
	C854.425415,165.877609 845.507996,152.162079 829.630371,146.574524 
	C822.393738,144.027847 814.417480,142.656265 806.736023,142.474915 
	C784.101135,141.940552 761.445923,142.260757 738.798706,142.275299 
	C737.541199,142.276108 736.283875,142.537216 734.966675,142.683823 
	C734.840515,143.686401 734.689087,144.330246 734.688477,144.974228 
	C734.644714,190.768082 734.666565,236.562149 734.488953,282.355438 
	C734.472961,286.485229 736.207764,286.874542 739.560547,286.859344 
	C763.206421,286.752197 786.853027,286.796082 811.499023,286.792175 
M1610.499268,203.981110 
	C1598.335938,203.993393 1586.168945,204.182266 1574.011475,203.920029 
	C1569.881958,203.830963 1568.782715,205.234314 1569.040649,209.095886 
	C1569.339722,213.574677 1569.378906,218.108322 1569.043457,222.581619 
	C1568.692871,227.257767 1570.102051,229.101746 1575.109619,228.854507 
	C1583.086426,228.460678 1591.104492,228.980240 1599.093994,228.741409 
	C1603.144775,228.620316 1604.315308,230.154221 1604.173340,233.997070 
	C1603.933594,240.486145 1604.176514,246.991455 1604.090698,253.488281 
	C1604.010010,259.603760 1602.037842,261.521851 1595.927734,261.522980 
	C1578.266602,261.526245 1560.605347,261.497284 1542.944214,261.455566 
	C1534.984497,261.436768 1533.622681,260.116791 1533.608276,252.131775 
	C1533.562622,226.806396 1533.562134,201.480942 1533.564819,176.155518 
	C1533.565430,169.375717 1535.291626,167.686157 1542.225220,167.681641 
	C1559.053223,167.670715 1575.881470,167.668747 1592.709351,167.713394 
	C1602.713623,167.739929 1602.709229,167.783585 1604.740967,177.482773 
	C1604.793823,177.735901 1605.204834,177.914062 1605.764038,178.402222 
	C1611.660889,176.973297 1617.729126,175.144089 1623.930298,174.117493 
	C1628.610962,173.342621 1629.456177,170.936676 1628.895264,166.872025 
	C1627.074829,153.681686 1615.861450,142.657349 1602.475586,142.392303 
	C1580.324585,141.953720 1558.150635,141.871216 1536.002441,142.360855 
	C1519.582397,142.723862 1508.171387,155.244980 1508.152344,171.651993 
	C1508.119263,200.309769 1508.093872,228.967804 1508.178101,257.625397 
	C1508.227417,274.406738 1519.755371,286.555206 1536.603882,286.834320 
	C1558.257446,287.193085 1579.926270,287.142059 1601.580444,286.777008 
	C1616.837280,286.519836 1628.639648,275.015320 1628.914062,260.377228 
	C1629.241943,242.888428 1628.970337,225.389053 1629.117188,207.895584 
	C1629.143677,204.725464 1627.919556,203.841187 1624.992920,203.942841 
	C1620.499756,204.098892 1615.997192,203.980423 1610.499268,203.981110 
M952.215393,142.617554 
	C951.859497,143.822357 951.194092,145.026688 951.192261,146.232010 
	C951.122742,191.710068 951.134033,237.188248 951.051880,282.666260 
	C951.046570,285.589111 951.820740,286.869415 954.971619,286.861511 
	C989.787964,286.774170 1024.604614,286.757019 1059.421021,286.822784 
	C1062.541992,286.828674 1063.467896,285.670074 1063.356934,282.702148 
	C1063.170288,277.711334 1063.003418,272.686920 1063.375122,267.717560 
	C1063.723877,263.056213 1062.387573,261.416992 1057.417480,261.462433 
	C1032.431763,261.690857 1007.442627,261.543579 982.454712,261.508179 
	C980.677856,261.505646 978.901306,261.341888 977.066895,261.250214 
	C977.066895,249.825211 977.066895,238.787689 977.066895,227.665665 
	C978.642151,227.577042 979.798584,227.456543 980.955078,227.455154 
	C1001.112061,227.430954 1021.269531,227.348175 1041.425537,227.479309 
	C1044.861328,227.501663 1046.196045,226.607574 1045.995972,223.020966 
	C1045.727417,218.205551 1045.567627,213.323837 1046.059204,208.542358 
	C1046.602051,203.262527 1044.460571,202.097412 1039.603638,202.150620 
	C1021.281738,202.351334 1002.955872,202.184525 984.631470,202.156525 
	C982.182312,202.152786 979.733215,202.155991 977.024780,202.155991 
	C977.024780,190.355865 977.024780,179.165390 977.024780,167.598251 
	C979.743469,167.598251 982.049622,167.601212 984.355774,167.597794 
	C1009.010376,167.561340 1033.665161,167.562668 1058.318970,167.398682 
	C1059.948975,167.387833 1062.947632,166.178970 1062.982910,165.419403 
	C1063.334106,157.846588 1063.195923,150.251083 1063.195923,142.345444 
	C1026.003052,142.345444 989.540283,142.345444 952.215393,142.617554 
M1810.469971,202.318634 
	C1792.979736,202.274155 1775.488892,202.136658 1757.999756,202.257935 
	C1754.162476,202.284546 1752.602051,201.208740 1752.730835,197.190018 
	C1752.981567,189.368683 1753.083862,181.524658 1752.766357,173.709579 
	C1752.569214,168.859589 1754.287109,167.497513 1759.053101,167.539246 
	C1784.036987,167.758072 1809.024048,167.576294 1834.008789,167.743546 
	C1837.863892,167.769348 1839.422485,166.847229 1839.161987,162.765793 
	C1838.833740,157.622650 1838.784790,152.422440 1839.156128,147.285950 
	C1839.472290,142.911026 1837.683228,142.057495 1833.718506,142.074921 
	C1799.738525,142.224380 1765.757690,142.235123 1731.777466,142.142075 
	C1728.347290,142.132690 1727.124023,143.022461 1727.131714,146.598663 
	C1727.229248,191.905899 1727.218140,237.213455 1727.145020,282.520782 
	C1727.140015,285.610138 1727.829102,287.008118 1731.278198,286.997253 
	C1765.924683,286.888123 1800.571899,286.883240 1835.218506,286.958832 
	C1838.398071,286.965790 1839.203003,285.714661 1839.117554,282.804016 
	C1838.961182,277.478638 1838.794922,272.122650 1839.192261,266.821350 
	C1839.533081,262.275940 1837.843628,261.276764 1833.534424,261.312775 
	C1808.550415,261.521515 1783.562622,261.311218 1758.578979,261.548065 
	C1753.867798,261.592712 1752.564209,260.108521 1752.752686,255.586746 
	C1753.064697,248.105301 1753.023926,240.587997 1752.667725,233.107864 
	C1752.457642,228.691559 1753.890503,227.408722 1758.298096,227.458298 
	C1777.617798,227.675690 1796.941650,227.550781 1816.263916,227.529831 
	C1818.035767,227.527908 1819.807373,227.382843 1821.977539,227.286575 
	C1821.977539,222.121185 1821.982056,217.475937 1821.976562,212.830704 
	C1821.964355,202.338654 1821.962402,202.338654 1810.469971,202.318634 
M1157.079346,186.500824 
	C1157.109863,210.489166 1156.996704,234.478851 1157.221802,258.465363 
	C1157.372192,274.490448 1168.928467,286.466827 1184.920410,286.734528 
	C1206.736816,287.099762 1228.567749,287.049622 1250.385620,286.723663 
	C1264.192505,286.517395 1275.075317,276.951202 1277.307739,263.742249 
	C1277.556885,262.269012 1276.585327,259.484375 1275.505249,259.071259 
	C1268.562378,256.415405 1261.431396,254.251205 1254.376221,251.930099 
	C1251.025757,261.537537 1251.025757,261.538452 1240.759033,261.534058 
	C1224.100464,261.526947 1207.441650,261.544678 1190.783203,261.497864 
	C1184.043335,261.478912 1182.252441,259.675812 1182.228638,252.825027 
	C1182.173096,236.832809 1182.192261,220.840332 1182.191528,204.847961 
	C1182.191040,195.185928 1182.144043,185.523224 1182.244873,175.862137 
	C1182.306152,169.988922 1184.443237,167.649658 1189.818359,167.627106 
	C1208.309204,167.549515 1226.800781,167.634933 1245.291260,167.520493 
	C1250.259277,167.489746 1252.671021,169.787857 1253.106689,174.570557 
	C1253.191040,175.496185 1253.507690,176.400635 1253.851562,177.901672 
	C1260.713257,176.048386 1267.214722,174.089691 1273.819458,172.585510 
	C1277.698608,171.702103 1278.345703,169.627899 1277.768555,166.132385 
	C1275.554565,152.720825 1263.926392,142.510925 1249.668701,142.352081 
	C1228.348267,142.114532 1207.020874,142.105286 1185.700684,142.352493 
	C1169.441650,142.541000 1157.469360,154.755203 1157.069946,171.009399 
	C1156.951416,175.837280 1157.069214,180.670959 1157.079346,186.500824 
M2186.605957,237.279022 
	C2186.673096,252.264175 2186.858887,267.250397 2186.724854,282.233765 
	C2186.691162,285.999481 2187.842041,287.257812 2191.565918,287.021332 
	C2196.044678,286.736877 2200.554688,286.963379 2205.051270,286.939087 
	C2212.389404,286.899475 2212.391113,286.889374 2212.397705,279.567535 
	C2212.430420,244.095276 2212.533936,208.622757 2212.402832,173.151093 
	C2212.386719,168.743057 2213.688477,167.402435 2218.069092,167.526276 
	C2228.885986,167.832123 2239.718506,167.547180 2250.539551,167.764145 
	C2254.066650,167.834869 2255.259766,166.652130 2255.129395,163.183060 
	C2254.923096,157.695343 2254.916260,152.186325 2255.155762,146.700729 
	C2255.306152,143.253799 2254.210449,142.064026 2250.653320,142.077759 
	C2216.347412,142.210251 2182.040771,142.230865 2147.734619,142.144806 
	C2144.342285,142.136292 2143.393066,143.350555 2143.508057,146.520111 
	C2143.707520,152.009338 2143.777344,157.516403 2143.565430,163.002991 
	C2143.416504,166.848679 2145.061035,167.778580 2148.626465,167.728516 
	C2159.615234,167.574158 2170.610596,167.866455 2181.598389,167.678543 
	C2185.574707,167.610535 2186.682861,168.964584 2186.653076,172.872101 
	C2186.490967,194.020981 2186.593262,215.171875 2186.605957,237.279022 
M1401.489746,254.500671 
	C1401.489746,217.268600 1401.489746,180.036530 1401.489746,142.504974 
	C1392.752930,142.504974 1384.843506,142.504974 1376.763062,142.504974 
	C1376.763062,190.625198 1376.763062,238.584717 1376.763062,286.548859 
	C1385.070557,286.548859 1392.853027,286.548859 1401.490112,286.548859 
	C1401.490112,276.029755 1401.490112,265.765167 1401.489746,254.500671 
M606.813171,413.499023 
	C606.803162,304.345459 606.793335,195.191925 606.781616,86.038376 
	C606.781494,84.872627 607.109497,83.533531 606.645508,82.589355 
	C606.171875,81.625656 604.931946,80.496254 603.985168,80.456802 
	C602.997803,80.415649 601.448059,81.373985 601.066772,82.282570 
	C600.524475,83.574669 600.772461,85.220367 600.772339,86.715012 
	C600.766479,141.537048 600.777588,196.359085 600.771851,251.181122 
	C600.767761,290.176514 600.739441,329.171906 600.728699,368.167297 
	C600.723389,387.660522 600.723816,407.153748 600.749084,426.646942 
	C600.751953,428.872253 600.030273,431.575714 603.866821,431.518127 
	C607.783752,431.459320 606.733643,428.610687 606.788879,426.495819 
	C606.893372,422.499084 606.814270,418.497589 606.813171,413.499023 
M1170.882080,387.481995 
	C1170.882080,391.387512 1170.882080,395.292999 1170.882080,399.658691 
	C1174.110229,399.473389 1176.480957,399.337311 1178.850098,399.201324 
	C1178.850098,385.196228 1178.850098,371.790161 1178.850098,358.447113 
	C1169.602417,356.704742 1169.367676,356.898041 1166.048584,364.837006 
	C1163.334351,371.328888 1160.408691,377.732452 1157.297974,384.809357 
	C1156.258911,383.521301 1155.372559,382.803131 1154.981689,381.876099 
	C1152.528931,376.057648 1150.193604,370.189728 1147.805908,364.343689 
	C1144.862183,357.136688 1142.699097,356.195374 1135.127441,358.743286 
	C1135.127441,372.183105 1135.127441,385.597076 1135.127441,399.095795 
	C1137.853149,399.095795 1140.230225,399.095795 1143.545410,399.095795 
	C1143.545410,391.615204 1143.545410,384.548615 1143.545410,377.482025 
	C1145.316284,378.365997 1145.924683,379.286377 1146.346191,380.285583 
	C1148.609497,385.651459 1150.677979,391.107086 1153.163330,396.366516 
	C1153.786133,397.684845 1155.691528,399.156189 1157.016724,399.164917 
	C1158.281250,399.173187 1160.093994,397.626709 1160.733032,396.310760 
	C1163.054565,391.530212 1164.957764,386.547882 1167.078979,381.667877 
	C1167.734985,380.158630 1168.583374,378.733063 1169.343750,377.269165 
	C1169.854858,377.410889 1170.365967,377.552612 1170.877075,377.694336 
	C1170.877075,380.630676 1170.877075,383.566986 1170.882080,387.481995 
M1952.033691,399.491882 
	C1965.615845,397.823883 1968.582153,389.652832 1959.909912,377.424896 
	C1963.295898,373.545776 1964.825928,369.243835 1962.344238,364.209137 
	C1959.739258,358.924438 1954.962036,357.945862 1949.769653,357.855194 
	C1945.777954,357.785492 1941.774414,358.010345 1937.794189,357.785767 
	C1934.635986,357.607544 1933.803711,358.866211 1933.888916,361.853424 
	C1934.083130,368.669403 1933.971191,375.494202 1933.977295,382.315399 
	C1933.982178,387.908417 1933.978149,393.501404 1933.978149,399.501587 
	C1940.204102,399.501587 1945.666016,399.501587 1952.033691,399.491882 
M1535.657104,361.165344 
	C1534.673218,362.053802 1533.611938,362.870789 1532.717651,363.841766 
	C1524.465454,372.801178 1525.283569,387.092377 1534.478882,395.114288 
	C1543.334229,402.839600 1557.652222,401.588623 1565.315430,392.420013 
	C1571.697632,384.784119 1571.623535,372.511932 1565.148438,364.782867 
	C1558.086914,356.353485 1546.780762,354.786865 1535.657104,361.165344 
M756.071533,357.775757 
	C751.919006,357.786987 747.753845,357.622009 743.621765,357.918304 
	C742.404419,358.005585 740.277527,359.381409 740.264038,360.194763 
	C740.050842,373.100189 740.114136,386.010132 740.114136,399.489960 
	C745.411255,399.489960 750.180847,399.538910 754.949158,399.480499 
	C767.623047,399.325256 776.057373,391.530640 776.557312,379.545807 
	C777.109619,366.306854 767.377075,357.437866 756.071533,357.775757 
M952.604736,399.569092 
	C955.595154,399.537231 958.588074,399.571228 961.575623,399.461639 
	C972.164307,399.073334 979.760986,391.800873 980.932922,380.991791 
	C982.060303,370.593597 975.917603,360.611816 965.984192,358.708313 
	C959.121887,357.393311 951.911377,357.895142 944.844849,357.584595 
	C944.844849,372.098907 944.844849,385.626953 944.844849,399.582214 
	C947.392578,399.582214 949.525269,399.582214 952.604736,399.569092 
M1704.342285,384.871857 
	C1707.046509,383.497925 1708.679565,384.679016 1709.960693,387.080841 
	C1711.367065,389.717590 1712.926270,392.272888 1714.421509,394.862122 
	C1717.496460,400.186676 1719.649292,400.874847 1725.574829,398.413300 
	C1722.902222,393.491669 1720.231201,388.572784 1717.542114,383.620667 
	C1718.554565,382.839111 1719.211060,382.342377 1719.856812,381.832001 
	C1725.018921,377.752838 1726.804199,372.622437 1725.049561,366.920715 
	C1723.279663,361.169037 1719.080078,358.117004 1712.218872,357.870178 
	C1707.738159,357.709015 1703.233032,357.608948 1698.771606,357.933472 
	C1697.499146,358.026031 1695.306396,359.680298 1695.288452,360.650818 
	C1695.052856,373.395020 1695.131592,386.145050 1695.131592,399.071655 
	C1698.241211,399.071655 1700.749268,399.071655 1703.790039,399.071655 
	C1703.790039,394.275604 1703.790039,389.973083 1704.342285,384.871857 
M1442.651367,395.795135 
	C1440.377563,391.783447 1438.103638,387.771759 1435.789673,383.689484 
	C1436.663330,383.080414 1437.195312,382.711884 1437.724854,382.339844 
	C1443.207642,378.487671 1445.344360,373.104248 1443.702759,367.280762 
	C1442.094116,361.574219 1437.306885,358.080475 1430.522217,357.876526 
	C1426.039429,357.741760 1421.537964,357.657166 1417.071777,357.954529 
	C1415.969116,358.027954 1414.075439,359.662384 1414.060669,360.603149 
	C1413.859253,373.356018 1413.925415,386.113098 1413.925415,399.093872 
	C1417.027710,399.093872 1419.521240,399.093872 1422.177612,399.093872 
	C1422.177612,395.012451 1422.025391,391.360626 1422.262939,387.734314 
	C1422.342529,386.519684 1423.412720,384.392426 1424.036499,384.390106 
	C1425.427734,384.384949 1427.364868,385.080322 1428.112793,386.159973 
	C1430.180664,389.144897 1432.065918,392.344696 1433.442993,395.697906 
	C1435.212280,400.006165 1438.604492,399.778625 1442.084839,399.363098 
	C1442.524902,399.310577 1442.749146,397.451660 1442.651367,395.795135 
M1260.520752,363.802856 
	C1260.520752,375.568207 1260.520752,387.333527 1260.520752,399.159973 
	C1263.717407,399.159973 1266.113525,399.159973 1268.955688,399.159973 
	C1268.955688,394.114349 1268.955688,389.492767 1268.955688,384.971863 
	C1272.170776,383.616821 1274.100098,384.355408 1275.449463,387.129181 
	C1276.684326,389.668060 1278.174561,392.082153 1279.535889,394.560242 
	C1282.641479,400.213196 1284.317017,400.826172 1290.697876,398.525543 
	C1287.969604,393.595398 1285.249023,388.679413 1282.504639,383.720184 
	C1284.060425,382.565704 1285.363770,381.793671 1286.429199,380.773224 
	C1290.415039,376.955902 1291.444824,372.234802 1290.113403,367.020813 
	C1288.880005,362.191254 1285.519653,358.862061 1280.762451,358.407745 
	C1274.223999,357.783325 1267.581177,358.251434 1260.516357,358.251434 
	C1260.516357,359.966431 1260.516357,361.428345 1260.520752,363.802856 
M2209.457520,396.263245 
	C2211.775879,401.469788 2215.838623,399.388947 2220.018555,399.044861 
	C2217.058350,393.582977 2214.346436,388.578979 2211.666504,383.634216 
	C2213.264893,382.427795 2214.395264,381.708099 2215.368408,380.816681 
	C2219.326172,377.190887 2220.239990,372.605011 2219.096191,367.588440 
	C2218.000977,362.785095 2214.845459,359.143188 2210.106201,358.641693 
	C2203.451172,357.937469 2196.665771,358.463806 2189.959961,358.463806 
	C2189.959961,372.123962 2189.959961,385.662170 2189.959961,399.246643 
	C2192.660889,399.246643 2194.917725,399.246643 2197.788086,399.246643 
	C2197.788086,394.198853 2197.788086,389.468719 2197.788086,384.738586 
	C2198.223877,384.394745 2198.659912,384.050873 2199.095703,383.707031 
	C2200.752686,384.813843 2202.829102,385.600067 2203.973633,387.098175 
	C2205.972900,389.715881 2207.399170,392.771271 2209.457520,396.263245 
M847.769653,375.997223 
	C846.298035,396.404480 865.232056,404.878784 878.929626,397.535980 
	C882.933594,395.389618 886.090332,392.354553 887.363708,387.368530 
	C884.061584,386.623077 881.456604,382.824463 878.133972,387.449707 
	C874.730652,392.187408 869.185669,393.378723 863.875305,391.277252 
	C859.080994,389.379974 855.857483,384.066498 856.091248,378.446564 
	C856.339966,372.469147 859.623779,367.301270 864.386353,365.966614 
	C868.881531,364.706909 873.901489,364.259338 876.801514,368.429932 
	C880.224365,373.352539 883.281372,372.006531 887.184509,369.600342 
	C885.258423,363.217529 880.889709,359.777802 874.938721,358.123291 
	C862.624756,354.699799 849.835449,361.476837 847.769653,375.997223 
M1669.012939,378.485870 
	C1669.376831,375.693298 1668.258301,374.539307 1665.361938,374.762085 
	C1662.713745,374.965820 1660.020264,374.594391 1657.374756,374.814331 
	C1653.966187,375.097595 1652.877441,373.539490 1653.195190,370.424042 
	C1653.341675,368.988525 1653.393555,367.543365 1653.524658,365.549530 
	C1657.600830,365.549530 1661.395874,365.558289 1665.191040,365.547607 
	C1672.041870,365.528351 1672.092285,365.463745 1671.044312,357.839813 
	C1663.206787,357.839813 1655.257690,357.716370 1647.324463,358.013702 
	C1646.444458,358.046722 1644.997681,360.449677 1644.936768,361.803986 
	C1644.675171,367.621429 1644.835938,373.457703 1644.838379,379.287140 
	C1644.841187,385.880981 1644.838989,392.474792 1644.838989,399.198181 
	C1654.181885,399.198181 1662.766968,399.198181 1671.397949,399.198181 
	C1671.397949,396.657990 1671.397949,394.438202 1671.397949,391.822388 
	C1666.369141,391.822388 1661.723145,391.678314 1657.091431,391.873413 
	C1654.038086,392.001953 1653.206543,390.873260 1653.017700,387.864990 
	C1652.745850,383.532776 1654.055298,381.687042 1658.546021,382.199432 
	C1661.009277,382.480499 1663.593262,382.504944 1666.009521,382.046844 
	C1667.147339,381.831116 1668.017700,380.205200 1669.012939,378.485870 
M1105.899292,398.369751 
	C1110.587158,396.197815 1113.165649,392.597443 1112.995117,387.363312 
	C1112.817383,381.907074 1109.688477,378.408142 1104.868408,376.420471 
	C1101.647949,375.092438 1098.117188,374.459198 1095.014160,372.929199 
	C1093.523682,372.194275 1091.625122,369.894287 1091.860474,368.681152 
	C1092.130737,367.287170 1094.476196,365.516724 1096.069824,365.351379 
	C1098.158203,365.134766 1101.408447,365.631897 1102.376953,367.044128 
	C1105.449707,371.524170 1108.494141,370.153076 1111.965698,368.274078 
	C1109.817993,359.423126 1102.375854,355.375153 1093.090820,357.839600 
	C1087.699585,359.270538 1083.881348,363.227814 1083.322754,367.963104 
	C1082.708252,373.172211 1084.982422,377.093475 1090.623535,379.761505 
	C1093.764404,381.247040 1097.329590,381.898804 1100.334106,383.584717 
	C1102.046265,384.545593 1103.014893,386.831360 1104.318359,388.520508 
	C1102.268921,389.875305 1099.908325,392.654449 1098.234741,392.288879 
	C1094.731079,391.523468 1091.589355,389.101257 1088.299072,387.359467 
	C1088.443237,386.788696 1088.587402,386.217926 1088.731445,385.647156 
	C1086.579590,386.633484 1084.427612,387.619781 1082.275757,388.606140 
	C1083.779541,391.273682 1084.704590,394.632263 1086.901489,396.472198 
	C1092.315186,401.006165 1098.731079,401.228760 1105.899292,398.369751 
M1369.798950,399.537354 
	C1376.573242,399.537354 1383.347656,399.537354 1390.175903,399.537354 
	C1390.175903,396.682709 1390.175903,394.463654 1390.175903,391.870850 
	C1385.670044,391.870850 1381.506836,391.565155 1377.409180,391.952271 
	C1372.828003,392.385101 1371.356445,390.565155 1372.075073,386.293518 
	C1372.259277,385.198273 1372.254517,384.071289 1372.329468,383.055420 
	C1373.100830,382.741943 1373.548218,382.416962 1374.009521,382.396027 
	C1376.831909,382.267914 1379.657104,382.170807 1382.482300,382.134460 
	C1388.479248,382.057373 1388.782227,381.666870 1387.354126,374.861420 
	C1382.567505,374.861420 1377.650391,374.861420 1372.387695,374.861420 
	C1372.387695,371.591003 1372.387695,368.850372 1372.387695,365.370605 
	C1378.255249,365.370605 1384.139160,365.370605 1390.192627,365.370605 
	C1390.192627,362.543365 1390.192627,360.449036 1390.192627,357.805725 
	C1382.164429,357.805725 1374.375366,357.678101 1366.601196,357.962097 
	C1365.592285,357.998962 1363.884766,360.122772 1363.826416,361.343353 
	C1363.556274,366.986053 1363.769165,372.651123 1363.781738,378.308228 
	C1363.796997,385.229156 1363.785278,392.150177 1363.785278,399.306396 
	C1365.944092,399.404266 1367.413940,399.470886 1369.798950,399.537354 
M1014.555542,399.506439 
	C1019.812317,399.506439 1025.069092,399.506439 1030.288818,399.506439 
	C1030.288818,396.551117 1030.288818,394.456818 1030.288818,391.708282 
	C1024.085815,391.708282 1018.197449,391.708282 1012.288208,391.708282 
	C1012.288208,388.296936 1012.288208,385.552887 1012.288208,382.218719 
	C1015.762573,382.218719 1018.903381,382.246429 1022.043457,382.212891 
	C1028.414429,382.144806 1028.725464,381.713562 1027.093140,374.756683 
	C1023.254089,374.756683 1019.260559,374.998566 1015.329468,374.609772 
	C1014.144348,374.492584 1012.614807,372.801117 1012.172791,371.512024 
	C1011.624146,369.911835 1012.041260,367.980560 1012.041260,365.472382 
	C1018.261108,365.472382 1023.985779,365.472382 1029.942017,365.472382 
	C1029.942017,362.655273 1029.942017,360.561798 1029.942017,358.215271 
	C1021.210083,358.215271 1012.682556,358.215271 1004.012329,358.215271 
	C1004.012329,372.050659 1004.012329,385.483826 1004.012329,399.512085 
	C1007.356262,399.512085 1010.470093,399.512085 1014.555542,399.506439 
M1862.032837,391.602234 
	C1861.597290,388.713074 1861.161743,385.823944 1860.605347,382.132538 
	C1864.744751,382.132538 1867.701538,382.164612 1870.657471,382.125885 
	C1876.894531,382.044128 1877.045654,381.839233 1875.774658,374.846222 
	C1872.147705,374.846222 1868.365601,374.723206 1864.595947,374.886261 
	C1861.726929,375.010376 1860.666626,373.764252 1860.869751,371.054443 
	C1860.991089,369.435699 1861.027710,367.810638 1861.137085,365.433899 
	C1865.393555,365.433899 1869.342163,365.473877 1873.289673,365.424805 
	C1879.692627,365.345245 1879.833008,365.140167 1878.608643,358.184021 
	C1870.128784,358.184021 1861.584473,358.184021 1852.784790,358.184021 
	C1852.784790,371.931244 1852.784790,385.450043 1852.784790,399.057617 
	C1861.780151,399.057617 1870.444702,399.057617 1879.059204,399.057617 
	C1879.596436,391.976379 1879.596436,391.979034 1873.076172,391.928467 
	C1869.751709,391.902679 1866.427246,391.865356 1862.032837,391.602234 
M804.805786,357.805878 
	C802.935364,358.568451 799.456299,359.288574 799.434875,360.099915 
	C799.093506,373.030731 799.194519,385.973175 799.194519,399.163055 
	C808.642334,399.163055 817.348267,399.163055 825.986084,399.163055 
	C825.986084,396.656525 825.986084,394.541748 825.986084,391.951172 
	C819.946350,391.951172 814.169983,391.951172 808.125854,391.951172 
	C808.125854,388.576233 808.125854,385.681915 808.125854,382.184906 
	C811.754272,382.184906 815.059753,382.210693 818.364685,382.179260 
	C824.347778,382.122345 824.638611,381.707489 823.192261,374.940308 
	C818.361511,374.940308 813.417297,374.940308 808.176880,374.940308 
	C808.176880,371.599915 808.176880,368.725739 808.176880,365.484741 
	C812.364685,365.484741 816.183655,365.497559 820.002441,365.481964 
	C826.775635,365.454254 826.841919,365.362885 825.533569,357.813293 
	C819.000610,357.813293 812.367065,357.813293 804.805786,357.805878 
M1771.692017,362.606262 
	C1771.015015,357.519714 1767.302979,357.991180 1763.541138,357.736938 
	C1759.317749,357.451538 1759.214600,360.494232 1758.301636,363.020538 
	C1755.871704,369.745087 1753.503662,376.491974 1751.094604,383.224121 
	C1749.226074,388.446106 1747.332642,393.659180 1744.915039,400.360107 
	C1749.115601,398.376740 1753.548584,402.035187 1754.934570,396.779602 
	C1756.266846,391.727356 1759.122314,390.195129 1763.949341,390.994690 
	C1765.571289,391.263336 1767.292480,391.214172 1768.934082,391.020294 
	C1771.979614,390.660583 1773.374634,392.121033 1774.396973,394.831909 
	C1776.419189,400.193726 1778.164551,400.749908 1784.488403,398.459229 
	C1780.283081,386.757446 1776.076782,375.052673 1771.692017,362.606262 
M1212.331787,365.479889 
	C1208.328003,376.517181 1204.324097,387.554504 1200.112549,399.164429 
	C1203.872437,398.846619 1208.085327,401.829468 1209.588867,396.420197 
	C1210.885010,391.756561 1213.699585,390.572601 1218.043823,391.098602 
	C1220.011230,391.336792 1222.151001,390.708710 1223.996948,391.232849 
	C1225.781372,391.739532 1228.019897,392.846588 1228.787964,394.342529 
	C1231.726196,400.064880 1232.595581,400.636963 1239.222534,398.619965 
	C1234.893677,386.791534 1230.303589,375.067291 1226.388916,363.121735 
	C1224.970703,358.793854 1222.957275,357.714722 1218.650879,357.665283 
	C1213.164062,357.602295 1214.237183,362.120087 1212.331787,365.479889 
M2162.658203,391.867432 
	C2157.746826,391.867432 2152.835205,391.867432 2148.062744,391.867432 
	C2146.716553,382.319122 2146.716553,382.319183 2155.198486,382.255127 
	C2156.031006,382.248840 2156.863770,382.242767 2157.696289,382.234467 
	C2164.077637,382.170746 2164.386475,381.765411 2162.866943,374.738861 
	C2158.085693,374.738861 2153.163330,374.738861 2148.021973,374.738861 
	C2148.021973,371.480896 2148.021973,368.780975 2148.021973,365.404785 
	C2152.208008,365.404785 2156.004150,365.408386 2159.800049,365.403992 
	C2166.152344,365.396606 2166.272705,365.239410 2165.169678,358.110291 
	C2156.818604,358.110291 2148.417969,358.110291 2139.700684,358.110291 
	C2139.700684,371.931854 2139.700684,385.472931 2139.700684,399.098083 
	C2148.551514,399.098083 2157.099365,399.098083 2167.505371,399.098083 
	C2165.769775,395.989075 2164.622314,393.934113 2162.658203,391.867432 
M1998.359863,374.795166 
	C1992.511719,373.011230 1996.923828,368.933716 1995.607056,365.460693 
	C2000.184082,365.460693 2003.988159,365.476044 2007.791992,365.457275 
	C2014.363159,365.424866 2014.759277,364.871368 2013.015015,358.247131 
	C2004.633423,358.247131 1996.250610,358.247131 1987.809814,358.247131 
	C1987.809814,372.060425 1987.809814,385.490875 1987.809814,399.145355 
	C1996.623657,399.145355 2005.172119,399.145355 2013.877686,399.145355 
	C2013.877686,396.692291 2013.877686,394.602722 2013.877686,391.768951 
	C2007.766724,391.768951 2001.898560,391.768951 1995.992920,391.768951 
	C1995.992920,388.285309 1995.992920,385.559387 1995.992920,382.141449 
	C1999.636719,382.141449 2002.932129,382.174713 2006.226685,382.134125 
	C2012.045410,382.062439 2012.529419,381.315857 2010.652954,374.806671 
	C2006.988403,374.806671 2003.181152,374.806671 1998.359863,374.795166 
M1609.769775,385.296173 
	C1611.652466,384.697388 1613.653442,384.333466 1615.395508,383.455658 
	C1620.531738,380.867554 1623.426270,375.246155 1622.643311,369.855469 
	C1621.829834,364.254395 1617.710693,359.067688 1612.232544,358.514404 
	C1605.882690,357.873016 1599.418457,358.365021 1592.890381,358.365021 
	C1592.890381,371.999878 1592.890381,385.523224 1592.890381,398.989471 
	C1600.870117,400.182098 1600.870117,400.182098 1600.876221,392.855835 
	C1600.876587,392.357178 1600.947632,391.846802 1600.866943,391.361664 
	C1600.062622,386.519501 1602.183716,384.668488 1606.896362,385.372375 
	C1607.544556,385.469177 1608.223511,385.360321 1609.769775,385.296173 
M2052.483887,357.771057 
	C2046.712280,357.771057 2040.940796,357.771057 2034.758789,357.771057 
	C2034.894409,360.732788 2034.996338,362.957184 2035.101685,365.259705 
	C2039.011475,365.534027 2042.394287,365.771393 2046.202881,366.038605 
	C2046.202881,375.541687 2046.198486,384.507996 2046.204224,393.474304 
	C2046.208618,400.220795 2047.169067,400.848083 2054.794922,398.630920 
	C2054.794922,387.888702 2054.794922,376.987885 2054.794922,365.526428 
	C2057.581787,365.526428 2059.869385,365.401093 2062.137207,365.558258 
	C2064.952881,365.753418 2066.434082,365.040222 2066.496338,361.782349 
	C2066.556152,358.653198 2065.439453,357.636566 2062.451172,357.802948 
	C2059.468262,357.969086 2056.466553,357.799194 2052.483887,357.771057 
M2105.720947,389.310120 
	C2105.720947,381.557220 2105.720947,373.804321 2105.720947,365.487946 
	C2109.366455,365.487946 2112.281494,365.990814 2114.939453,365.377594 
	C2119.685547,364.282562 2116.777100,360.838165 2117.038330,357.807312 
	C2107.614990,357.807312 2098.644775,357.861206 2089.675781,357.773346 
	C2087.097412,357.748047 2085.585693,358.256409 2085.659668,361.319519 
	C2085.726562,364.108948 2086.321045,365.830780 2089.577393,365.603790 
	C2091.991211,365.435516 2094.426270,365.570679 2097.461914,365.570679 
	C2097.461914,377.277191 2097.461914,388.169830 2097.461914,398.923370 
	C2105.371826,400.381866 2105.569580,400.232513 2105.697998,393.245605 
	C2105.716309,392.246429 2105.711426,391.246857 2105.720947,389.310120 
M1321.953369,375.484467 
	C1321.953369,383.276520 1321.953369,391.068573 1321.953369,399.111755 
	C1325.022095,399.111755 1327.542480,399.111755 1330.603882,399.111755 
	C1330.603882,387.772034 1330.603882,376.876251 1330.603882,365.490051 
	C1333.943970,365.490051 1337.116089,366.292786 1339.417725,365.222778 
	C1341.100464,364.440460 1341.638062,361.195007 1343.122803,358.152374 
	C1331.162598,358.152374 1320.931763,358.152374 1310.757446,358.152374 
	C1309.506470,365.144440 1309.768188,365.469208 1316.028442,365.572693 
	C1317.936157,365.604187 1319.841187,365.800842 1321.952393,365.934875 
	C1321.952393,369.162384 1321.952393,371.817993 1321.953369,375.484467 
M1818.912720,379.505920 
	C1818.912720,374.937653 1818.912720,370.369385 1818.912720,365.924866 
	C1831.153320,364.678741 1831.153320,364.678741 1829.635010,358.125549 
	C1819.619019,358.125549 1809.553955,358.125549 1799.458618,358.125549 
	C1796.476929,369.749268 1806.636841,363.501343 1810.595459,366.792908 
	C1810.595459,377.203796 1810.595459,388.092072 1810.595459,399.193237 
	C1813.615356,399.193237 1816.021484,399.193237 1818.911865,399.193237 
	C1818.911865,392.739288 1818.911865,386.621094 1818.912720,379.505920 
M914.657593,399.614227 
	C916.080078,399.501923 917.502502,399.389648 918.819580,399.285675 
	C918.819580,385.281250 918.819580,371.752991 918.819580,358.302124 
	C916.001526,358.302124 913.621765,358.302124 910.955017,358.302124 
	C910.955017,371.360291 910.888550,383.978363 911.080383,396.592529 
	C911.095825,397.609619 912.885803,398.599731 914.657593,399.614227 
M2249.519287,391.160614 
	C2245.249756,389.358063 2242.167725,390.163208 2241.804932,393.624237 
	C2241.617676,395.410065 2242.505615,398.150238 2243.842773,399.016571 
	C2245.167969,399.875183 2248.930908,399.551910 2249.390625,398.631378 
	C2250.363037,396.684174 2249.879395,394.009888 2249.519287,391.160614 
M1475.654419,396.586731 
	C1476.192627,392.566620 1474.521484,389.991241 1470.399536,390.224915 
	C1467.101074,390.411957 1465.404419,392.941925 1466.222778,396.137756 
	C1466.586792,397.559387 1468.474609,399.607758 1469.630249,399.581543 
	C1471.571167,399.537476 1473.479736,398.062653 1475.654419,396.586731 
z"/>
<path fill="#CF933A" opacity="1.000000" stroke="none" 
	d="
M215.759521,403.733673 
	C221.234146,395.015015 226.668701,386.270844 232.198044,377.587036 
	C235.685715,372.109680 239.475937,366.819244 242.819595,361.258118 
	C244.769928,358.014374 247.136459,356.894897 250.942245,356.909973 
	C286.600555,357.051331 322.260223,357.107635 357.918427,356.948914 
	C397.546478,356.772491 426.006897,337.499237 443.821411,303.272186 
	C471.767883,249.578629 445.837708,181.290451 390.503326,160.158600 
	C380.143646,156.202316 369.413239,154.081070 358.279297,154.083496 
	C324.286591,154.090866 290.293610,153.982040 256.301636,154.130447 
	C252.268570,154.148056 249.978592,152.785477 247.833466,149.491013 
	C239.201645,136.234436 230.289642,123.160370 221.494827,110.009750 
	C220.873901,109.081322 220.363510,108.078987 219.390213,106.401978 
	C221.345474,106.224152 222.711655,105.991943 224.077927,105.991295 
	C267.901703,105.970703 311.736572,106.598755 355.546600,105.820961 
	C417.851288,104.714821 467.546265,142.674332 490.220215,196.036880 
	C515.902893,256.480347 501.066101,326.132690 452.709045,370.535889 
	C428.825531,392.466583 400.135681,403.946167 367.045044,405.091797 
	C364.489807,404.391876 362.532471,404.026245 360.574890,404.024658 
	C314.462219,403.987793 268.349518,403.993561 222.236801,403.974701 
	C220.077682,403.973816 217.918610,403.817566 215.759521,403.733673 
z"/>
<path fill="#CF943A" opacity="1.000000" stroke="none" 
	d="
M215.751831,279.403809 
	C215.324631,278.106689 214.536133,276.812439 214.525970,275.512054 
	C214.421707,262.185883 214.540070,248.857498 214.367554,235.532684 
	C214.320190,231.873764 215.447128,230.661942 219.216904,230.684662 
	C244.034210,230.834229 268.852875,230.758530 293.671082,230.745331 
	C294.647095,230.744812 295.623047,230.633209 297.763184,230.501984 
	C287.723267,216.139496 278.105835,202.381409 267.911652,187.798248 
	C270.192871,187.515793 271.559937,187.200623 272.927246,187.199631 
	C287.919708,187.188705 302.912598,187.290878 317.904388,187.201416 
	C321.193665,187.181778 323.342041,188.314850 325.509277,190.871353 
	C343.058990,211.573105 360.733704,232.170029 378.533661,252.657028 
	C381.020416,255.519180 381.108765,257.268402 378.564178,260.152161 
	C360.497681,280.626648 342.629059,301.275696 324.612030,321.794189 
	C323.503113,323.057068 321.676971,324.468567 320.170258,324.484772 
	C302.722839,324.672699 285.272644,324.604858 266.903656,324.604858 
	C267.868500,322.787506 268.324554,321.651855 269.010590,320.678284 
	C277.545013,308.566956 286.144501,296.501221 294.620728,284.349457 
	C295.421356,283.201721 295.501709,281.551483 295.900330,279.541870 
	C294.960480,278.630402 294.037354,278.035309 293.112946,278.033264 
	C268.826477,277.979797 244.539749,277.962494 220.253448,278.045837 
	C218.751358,278.050964 217.252304,278.930908 215.751831,279.403809 
M216.995743,271.489197 
	C216.946106,270.379883 216.896454,269.270569 216.846802,268.161224 
	C216.685104,268.168823 216.523407,268.176422 216.361710,268.184052 
	C216.361710,270.334015 216.361710,272.484009 216.361710,274.634003 
	C216.573074,274.628906 216.784439,274.623810 216.995804,274.618713 
	C216.995804,273.822327 216.995804,273.025940 216.995743,271.489197 
z"/>
<path fill="#D0943A" opacity="1.000000" stroke="none" 
	d="
M2056.538086,280.746643 
	C2056.461914,282.855621 2056.387207,284.495117 2056.282471,286.796295 
	C2048.275879,286.796295 2040.520752,286.969574 2032.787964,286.629974 
	C2031.460449,286.571686 2030.010864,284.486664 2028.984985,283.071503 
	C2007.580444,253.544174 1986.231323,223.976654 1964.861328,194.424316 
	C1963.656250,192.757874 1962.365601,191.153381 1959.915527,189.894547 
	C1959.760864,192.106384 1959.474609,194.318024 1959.471313,196.530090 
	C1959.429199,224.527283 1959.429565,252.524521 1959.414551,280.521759 
	C1959.411133,286.917969 1959.403198,286.919006 1952.796021,286.930115 
	C1948.129761,286.937958 1943.451904,286.741638 1938.801025,287.012146 
	C1935.077759,287.228668 1933.920044,285.923553 1933.946777,282.185028 
	C1934.093384,261.688141 1933.997681,241.189560 1933.993408,220.691574 
	C1933.988403,196.193939 1934.069092,171.695801 1933.911743,147.199173 
	C1933.886963,143.337784 1934.772705,141.558090 1938.909912,142.140564 
	C1941.034668,142.439697 1943.235474,142.207123 1945.401855,142.201859 
	C1959.554321,142.167480 1959.423340,142.258270 1967.665039,154.001282 
	C1987.945190,182.897217 2008.360596,211.698166 2028.693848,240.556870 
	C2029.068726,241.088913 2029.099243,241.863617 2029.290405,242.525024 
	C2029.834595,242.248077 2030.378784,241.971130 2030.922974,241.694183 
	C2031.024536,239.998825 2031.215576,238.303406 2031.214233,236.608124 
	C2031.192017,206.944458 2031.241943,177.280060 2031.003540,147.617996 
	C2030.967407,143.135086 2032.245239,141.765366 2036.647095,142.107010 
	C2041.616333,142.492691 2046.658325,142.456802 2051.632812,142.101410 
	C2055.801514,141.803558 2056.610840,143.529953 2056.594482,147.290848 
	C2056.471680,175.787552 2056.533447,204.285019 2056.536621,232.782257 
	C2056.538330,248.613892 2056.538330,264.445526 2056.538086,280.746643 
z"/>
<path fill="#F6F6F6" opacity="1.000000" stroke="none" 
	d="
M810.999207,286.791962 
	C786.853027,286.796082 763.206421,286.752197 739.560547,286.859344 
	C736.207764,286.874542 734.472961,286.485229 734.488953,282.355438 
	C734.666565,236.562149 734.644714,190.768082 734.688477,144.974228 
	C734.689087,144.330246 734.840515,143.686401 734.966675,142.683823 
	C736.283875,142.537216 737.541199,142.276108 738.798706,142.275299 
	C761.445923,142.260757 784.101135,141.940552 806.736023,142.474915 
	C814.417480,142.656265 822.393738,144.027847 829.630371,146.574524 
	C845.507996,152.162079 854.425415,165.877609 854.476746,182.683945 
	C854.549377,206.496582 854.280701,230.315140 854.732605,254.120270 
	C855.134216,275.273804 838.041321,286.956543 821.989868,286.856720 
	C818.492920,286.834991 814.995972,286.813690 810.999207,286.791962 
M828.458862,180.540802 
	C823.884827,171.570831 816.126526,167.708038 806.499817,167.579727 
	C792.343811,167.391068 778.180969,167.745499 764.023621,167.605759 
	C760.368164,167.569702 759.559814,168.927048 759.571960,172.270569 
	C759.669556,199.256363 759.594177,226.242722 759.639221,253.228806 
	C759.648987,259.108734 761.993896,261.465729 767.791687,261.481049 
	C785.282471,261.527344 802.773743,261.526215 820.264404,261.446411 
	C827.288940,261.414368 829.595459,259.058319 829.614746,252.150391 
	C829.672913,231.327820 829.717529,210.505066 829.672363,189.682587 
	C829.666260,186.879089 829.113159,184.076797 828.458862,180.540802 
z"/>
<path fill="#CE933A" opacity="1.000000" stroke="none" 
	d="
M1610.998901,203.979782 
	C1615.997192,203.980423 1620.499756,204.098892 1624.992920,203.942841 
	C1627.919556,203.841187 1629.143677,204.725464 1629.117188,207.895584 
	C1628.970337,225.389053 1629.241943,242.888428 1628.914062,260.377228 
	C1628.639648,275.015320 1616.837280,286.519836 1601.580444,286.777008 
	C1579.926270,287.142059 1558.257446,287.193085 1536.603882,286.834320 
	C1519.755371,286.555206 1508.227417,274.406738 1508.178101,257.625397 
	C1508.093872,228.967804 1508.119263,200.309769 1508.152344,171.651993 
	C1508.171387,155.244980 1519.582397,142.723862 1536.002441,142.360855 
	C1558.150635,141.871216 1580.324585,141.953720 1602.475586,142.392303 
	C1615.861450,142.657349 1627.074829,153.681686 1628.895264,166.872025 
	C1629.456177,170.936676 1628.610962,173.342621 1623.930298,174.117493 
	C1617.729126,175.144089 1611.660889,176.973297 1605.764038,178.402222 
	C1605.204834,177.914062 1604.793823,177.735901 1604.740967,177.482773 
	C1602.709229,167.783585 1602.713623,167.739929 1592.709351,167.713394 
	C1575.881470,167.668747 1559.053223,167.670715 1542.225220,167.681641 
	C1535.291626,167.686157 1533.565430,169.375717 1533.564819,176.155518 
	C1533.562134,201.480942 1533.562622,226.806396 1533.608276,252.131775 
	C1533.622681,260.116791 1534.984497,261.436768 1542.944214,261.455566 
	C1560.605347,261.497284 1578.266602,261.526245 1595.927734,261.522980 
	C1602.037842,261.521851 1604.010010,259.603760 1604.090698,253.488281 
	C1604.176514,246.991455 1603.933594,240.486145 1604.173340,233.997070 
	C1604.315308,230.154221 1603.144775,228.620316 1599.093994,228.741409 
	C1591.104492,228.980240 1583.086426,228.460678 1575.109619,228.854507 
	C1570.102051,229.101746 1568.692871,227.257767 1569.043457,222.581619 
	C1569.378906,218.108322 1569.339722,213.574677 1569.040649,209.095886 
	C1568.782715,205.234314 1569.881958,203.830963 1574.011475,203.920029 
	C1586.168945,204.182266 1598.335938,203.993393 1610.998901,203.979782 
z"/>
<path fill="#F4F4F4" opacity="1.000000" stroke="none" 
	d="
M952.646423,142.481506 
	C989.540283,142.345444 1026.003052,142.345444 1063.195923,142.345444 
	C1063.195923,150.251083 1063.334106,157.846588 1062.982910,165.419403 
	C1062.947632,166.178970 1059.948975,167.387833 1058.318970,167.398682 
	C1033.665161,167.562668 1009.010376,167.561340 984.355774,167.597794 
	C982.049622,167.601212 979.743469,167.598251 977.024780,167.598251 
	C977.024780,179.165390 977.024780,190.355865 977.024780,202.155991 
	C979.733215,202.155991 982.182312,202.152786 984.631470,202.156525 
	C1002.955872,202.184525 1021.281738,202.351334 1039.603638,202.150620 
	C1044.460571,202.097412 1046.602051,203.262527 1046.059204,208.542358 
	C1045.567627,213.323837 1045.727417,218.205551 1045.995972,223.020966 
	C1046.196045,226.607574 1044.861328,227.501663 1041.425537,227.479309 
	C1021.269531,227.348175 1001.112061,227.430954 980.955078,227.455154 
	C979.798584,227.456543 978.642151,227.577042 977.066895,227.665665 
	C977.066895,238.787689 977.066895,249.825211 977.066895,261.250214 
	C978.901306,261.341888 980.677856,261.505646 982.454712,261.508179 
	C1007.442627,261.543579 1032.431763,261.690857 1057.417480,261.462433 
	C1062.387573,261.416992 1063.723877,263.056213 1063.375122,267.717560 
	C1063.003418,272.686920 1063.170288,277.711334 1063.356934,282.702148 
	C1063.467896,285.670074 1062.541992,286.828674 1059.421021,286.822784 
	C1024.604614,286.757019 989.787964,286.774170 954.971619,286.861511 
	C951.820740,286.869415 951.046570,285.589111 951.051880,282.666260 
	C951.134033,237.188248 951.122742,191.710068 951.192261,146.232010 
	C951.194092,145.026688 951.859497,143.822357 952.646423,142.481506 
z"/>
<path fill="#CC923A" opacity="1.000000" stroke="none" 
	d="
M1810.963379,202.318802 
	C1821.962402,202.338654 1821.964355,202.338654 1821.976562,212.830704 
	C1821.982056,217.475937 1821.977539,222.121185 1821.977539,227.286575 
	C1819.807373,227.382843 1818.035767,227.527908 1816.263916,227.529831 
	C1796.941650,227.550781 1777.617798,227.675690 1758.298096,227.458298 
	C1753.890503,227.408722 1752.457642,228.691559 1752.667725,233.107864 
	C1753.023926,240.587997 1753.064697,248.105301 1752.752686,255.586746 
	C1752.564209,260.108521 1753.867798,261.592712 1758.578979,261.548065 
	C1783.562622,261.311218 1808.550415,261.521515 1833.534424,261.312775 
	C1837.843628,261.276764 1839.533081,262.275940 1839.192261,266.821350 
	C1838.794922,272.122650 1838.961182,277.478638 1839.117554,282.804016 
	C1839.203003,285.714661 1838.398071,286.965790 1835.218506,286.958832 
	C1800.571899,286.883240 1765.924683,286.888123 1731.278198,286.997253 
	C1727.829102,287.008118 1727.140015,285.610138 1727.145020,282.520782 
	C1727.218140,237.213455 1727.229248,191.905899 1727.131714,146.598663 
	C1727.124023,143.022461 1728.347290,142.132690 1731.777466,142.142075 
	C1765.757690,142.235123 1799.738525,142.224380 1833.718506,142.074921 
	C1837.683228,142.057495 1839.472290,142.911026 1839.156128,147.285950 
	C1838.784790,152.422440 1838.833740,157.622650 1839.161987,162.765793 
	C1839.422485,166.847229 1837.863892,167.769348 1834.008789,167.743546 
	C1809.024048,167.576294 1784.036987,167.758072 1759.053101,167.539246 
	C1754.287109,167.497513 1752.569214,168.859589 1752.766357,173.709579 
	C1753.083862,181.524658 1752.981567,189.368683 1752.730835,197.190018 
	C1752.602051,201.208740 1754.162476,202.284546 1757.999756,202.257935 
	C1775.488892,202.136658 1792.979736,202.274155 1810.963379,202.318802 
z"/>
<path fill="#F6F6F6" opacity="1.000000" stroke="none" 
	d="
M1157.078979,186.001404 
	C1157.069214,180.670959 1156.951416,175.837280 1157.069946,171.009399 
	C1157.469360,154.755203 1169.441650,142.541000 1185.700684,142.352493 
	C1207.020874,142.105286 1228.348267,142.114532 1249.668701,142.352081 
	C1263.926392,142.510925 1275.554565,152.720825 1277.768555,166.132385 
	C1278.345703,169.627899 1277.698608,171.702103 1273.819458,172.585510 
	C1267.214722,174.089691 1260.713257,176.048386 1253.851562,177.901672 
	C1253.507690,176.400635 1253.191040,175.496185 1253.106689,174.570557 
	C1252.671021,169.787857 1250.259277,167.489746 1245.291260,167.520493 
	C1226.800781,167.634933 1208.309204,167.549515 1189.818359,167.627106 
	C1184.443237,167.649658 1182.306152,169.988922 1182.244873,175.862137 
	C1182.144043,185.523224 1182.191040,195.185928 1182.191528,204.847961 
	C1182.192261,220.840332 1182.173096,236.832809 1182.228638,252.825027 
	C1182.252441,259.675812 1184.043335,261.478912 1190.783203,261.497864 
	C1207.441650,261.544678 1224.100464,261.526947 1240.759033,261.534058 
	C1251.025757,261.538452 1251.025757,261.537537 1254.376221,251.930099 
	C1261.431396,254.251205 1268.562378,256.415405 1275.505249,259.071259 
	C1276.585327,259.484375 1277.556885,262.269012 1277.307739,263.742249 
	C1275.075317,276.951202 1264.192505,286.517395 1250.385620,286.723663 
	C1228.567749,287.049622 1206.736816,287.099762 1184.920410,286.734528 
	C1168.928467,286.466827 1157.372192,274.490448 1157.221802,258.465363 
	C1156.996704,234.478851 1157.109863,210.489166 1157.078979,186.001404 
z"/>
<path fill="#CD923A" opacity="1.000000" stroke="none" 
	d="
M2186.605469,236.800552 
	C2186.593262,215.171875 2186.490967,194.020981 2186.653076,172.872101 
	C2186.682861,168.964584 2185.574707,167.610535 2181.598389,167.678543 
	C2170.610596,167.866455 2159.615234,167.574158 2148.626465,167.728516 
	C2145.061035,167.778580 2143.416504,166.848679 2143.565430,163.002991 
	C2143.777344,157.516403 2143.707520,152.009338 2143.508057,146.520111 
	C2143.393066,143.350555 2144.342285,142.136292 2147.734619,142.144806 
	C2182.040771,142.230865 2216.347412,142.210251 2250.653320,142.077759 
	C2254.210449,142.064026 2255.306152,143.253799 2255.155762,146.700729 
	C2254.916260,152.186325 2254.923096,157.695343 2255.129395,163.183060 
	C2255.259766,166.652130 2254.066650,167.834869 2250.539551,167.764145 
	C2239.718506,167.547180 2228.885986,167.832123 2218.069092,167.526276 
	C2213.688477,167.402435 2212.386719,168.743057 2212.402832,173.151093 
	C2212.533936,208.622757 2212.430420,244.095276 2212.397705,279.567535 
	C2212.391113,286.889374 2212.389404,286.899475 2205.051270,286.939087 
	C2200.554688,286.963379 2196.044678,286.736877 2191.565918,287.021332 
	C2187.842041,287.257812 2186.691162,285.999481 2186.724854,282.233765 
	C2186.858887,267.250397 2186.673096,252.264175 2186.605469,236.800552 
z"/>
<path fill="#F6F5F6" opacity="1.000000" stroke="none" 
	d="
M1401.489990,255.000626 
	C1401.490112,265.765167 1401.490112,276.029755 1401.490112,286.548859 
	C1392.853027,286.548859 1385.070557,286.548859 1376.763062,286.548859 
	C1376.763062,238.584717 1376.763062,190.625198 1376.763062,142.504974 
	C1384.843506,142.504974 1392.752930,142.504974 1401.489746,142.504974 
	C1401.489746,180.036530 1401.489746,217.268600 1401.489990,255.000626 
z"/>
<path fill="#B78135" opacity="1.000000" stroke="none" 
	d="
M606.812256,413.998535 
	C606.814270,418.497589 606.893372,422.499084 606.788879,426.495819 
	C606.733643,428.610687 607.783752,431.459320 603.866821,431.518127 
	C600.030273,431.575714 600.751953,428.872253 600.749084,426.646942 
	C600.723816,407.153748 600.723389,387.660522 600.728699,368.167297 
	C600.739441,329.171906 600.767761,290.176514 600.771851,251.181122 
	C600.777588,196.359085 600.766479,141.537048 600.772339,86.715012 
	C600.772461,85.220367 600.524475,83.574669 601.066772,82.282570 
	C601.448059,81.373985 602.997803,80.415649 603.985168,80.456802 
	C604.931946,80.496254 606.171875,81.625656 606.645508,82.589355 
	C607.109497,83.533531 606.781494,84.872627 606.781616,86.038376 
	C606.793335,195.191925 606.803162,304.345459 606.812256,413.998535 
z"/>
<path fill="#E8E8E9" opacity="1.000000" stroke="none" 
	d="
M1170.879639,386.992645 
	C1170.877075,383.566986 1170.877075,380.630676 1170.877075,377.694336 
	C1170.365967,377.552612 1169.854858,377.410889 1169.343750,377.269165 
	C1168.583374,378.733063 1167.734985,380.158630 1167.078979,381.667877 
	C1164.957764,386.547882 1163.054565,391.530212 1160.733032,396.310760 
	C1160.093994,397.626709 1158.281250,399.173187 1157.016724,399.164917 
	C1155.691528,399.156189 1153.786133,397.684845 1153.163330,396.366516 
	C1150.677979,391.107086 1148.609497,385.651459 1146.346191,380.285583 
	C1145.924683,379.286377 1145.316284,378.365997 1143.545410,377.482025 
	C1143.545410,384.548615 1143.545410,391.615204 1143.545410,399.095795 
	C1140.230225,399.095795 1137.853149,399.095795 1135.127441,399.095795 
	C1135.127441,385.597076 1135.127441,372.183105 1135.127441,358.743286 
	C1142.699097,356.195374 1144.862183,357.136688 1147.805908,364.343689 
	C1150.193604,370.189728 1152.528931,376.057648 1154.981689,381.876099 
	C1155.372559,382.803131 1156.258911,383.521301 1157.297974,384.809357 
	C1160.408691,377.732452 1163.334351,371.328888 1166.048584,364.837006 
	C1169.367676,356.898041 1169.602417,356.704742 1178.850098,358.447113 
	C1178.850098,371.790161 1178.850098,385.196228 1178.850098,399.201324 
	C1176.480957,399.337311 1174.110229,399.473389 1170.882080,399.658691 
	C1170.882080,395.292999 1170.882080,391.387512 1170.879639,386.992645 
z"/>
<path fill="#EAEAEB" opacity="1.000000" stroke="none" 
	d="
M1951.580811,399.496735 
	C1945.666016,399.501587 1940.204102,399.501587 1933.978149,399.501587 
	C1933.978149,393.501404 1933.982178,387.908417 1933.977295,382.315399 
	C1933.971191,375.494202 1934.083130,368.669403 1933.888916,361.853424 
	C1933.803711,358.866211 1934.635986,357.607544 1937.794189,357.785767 
	C1941.774414,358.010345 1945.777954,357.785492 1949.769653,357.855194 
	C1954.962036,357.945862 1959.739258,358.924438 1962.344238,364.209137 
	C1964.825928,369.243835 1963.295898,373.545776 1959.909912,377.424896 
	C1968.582153,389.652832 1965.615845,397.823883 1951.580811,399.496735 
M1947.480225,381.678833 
	C1941.567383,381.895447 1941.270142,382.504272 1942.889771,392.004761 
	C1945.855469,392.004761 1949.095215,392.533081 1952.023071,391.805573 
	C1953.764893,391.372833 1956.105347,389.023712 1956.191650,387.428802 
	C1956.284180,385.715851 1954.318481,383.564606 1952.732544,382.212372 
	C1951.803101,381.419708 1949.862793,381.812439 1947.480225,381.678833 
M1949.951538,365.228943 
	C1941.422363,365.201202 1941.036987,365.695221 1943.000732,374.753906 
	C1945.150391,374.753906 1947.647339,375.348450 1949.630493,374.593292 
	C1951.786865,373.772247 1953.465698,371.697083 1955.352783,370.168671 
	C1953.821533,368.545654 1952.290283,366.922638 1949.951538,365.228943 
z"/>
<path fill="#E6E7E7" opacity="1.000000" stroke="none" 
	d="
M1535.958740,360.972717 
	C1546.780762,354.786865 1558.086914,356.353485 1565.148438,364.782867 
	C1571.623535,372.511932 1571.697632,384.784119 1565.315430,392.420013 
	C1557.652222,401.588623 1543.334229,402.839600 1534.478882,395.114288 
	C1525.283569,387.092377 1524.465454,372.801178 1532.717651,363.841766 
	C1533.611938,362.870789 1534.673218,362.053802 1535.958740,360.972717 
M1551.829712,391.916901 
	C1558.397095,389.502502 1561.961670,384.399933 1561.562500,377.984039 
	C1561.190674,372.008453 1557.505737,367.119415 1552.260864,365.708435 
	C1546.973755,364.286041 1542.345703,365.368530 1538.741455,369.626495 
	C1535.250366,373.750610 1534.522461,380.900940 1537.153564,385.609222 
	C1540.184570,391.032867 1544.935181,393.036774 1551.829712,391.916901 
z"/>
<path fill="#E6E7E7" opacity="1.000000" stroke="none" 
	d="
M756.521851,357.786682 
	C767.377075,357.437866 777.109619,366.306854 776.557312,379.545807 
	C776.057373,391.530640 767.623047,399.325256 754.949158,399.480499 
	C750.180847,399.538910 745.411255,399.489960 740.114136,399.489960 
	C740.114136,386.010132 740.050842,373.100189 740.264038,360.194763 
	C740.277527,359.381409 742.404419,358.005585 743.621765,357.918304 
	C747.753845,357.622009 751.919006,357.786987 756.521851,357.786682 
M765.952637,370.801727 
	C761.514160,364.224579 755.060486,365.457214 748.605408,365.783356 
	C748.605408,374.720642 748.605408,383.088898 748.605408,392.522552 
	C753.404114,391.755798 758.001587,391.802826 761.937012,390.212006 
	C768.073425,387.731506 769.537720,380.097687 765.952637,370.801727 
z"/>
<path fill="#E7E8E8" opacity="1.000000" stroke="none" 
	d="
M952.131348,399.575653 
	C949.525269,399.582214 947.392578,399.582214 944.844849,399.582214 
	C944.844849,385.626953 944.844849,372.098907 944.844849,357.584595 
	C951.911377,357.895142 959.121887,357.393311 965.984192,358.708313 
	C975.917603,360.611816 982.060303,370.593597 980.932922,380.991791 
	C979.760986,391.800873 972.164307,399.073334 961.575623,399.461639 
	C958.588074,399.571228 955.595154,399.537231 952.131348,399.575653 
M967.419800,367.839142 
	C963.441284,367.084351 959.481628,366.139862 955.467773,365.739258 
	C954.691101,365.661774 952.978210,367.678131 952.930115,368.782257 
	C952.642334,375.398224 952.591492,382.033539 952.786987,388.652740 
	C952.820068,389.772247 954.281067,391.600281 955.343811,391.816559 
	C962.076172,393.186920 967.919556,390.857269 970.577820,386.143341 
	C973.762085,380.496796 972.751831,373.467834 967.419800,367.839142 
z"/>
<path fill="#E6E7E7" opacity="1.000000" stroke="none" 
	d="
M1704.066162,385.271210 
	C1703.790039,389.973083 1703.790039,394.275604 1703.790039,399.071655 
	C1700.749268,399.071655 1698.241211,399.071655 1695.131592,399.071655 
	C1695.131592,386.145050 1695.052856,373.395020 1695.288452,360.650818 
	C1695.306396,359.680298 1697.499146,358.026031 1698.771606,357.933472 
	C1703.233032,357.608948 1707.738159,357.709015 1712.218872,357.870178 
	C1719.080078,358.117004 1723.279663,361.169037 1725.049561,366.920715 
	C1726.804199,372.622437 1725.018921,377.752838 1719.856812,381.832001 
	C1719.211060,382.342377 1718.554565,382.839111 1717.542114,383.620667 
	C1720.231201,388.572784 1722.902222,393.491669 1725.574829,398.413300 
	C1719.649292,400.874847 1717.496460,400.186676 1714.421509,394.862122 
	C1712.926270,392.272888 1711.367065,389.717590 1709.960693,387.080841 
	C1708.679565,384.679016 1707.046509,383.497925 1704.066162,385.271210 
M1716.232056,374.510986 
	C1718.106567,371.470184 1717.850952,367.975220 1714.863525,366.711731 
	C1711.744141,365.392456 1707.841187,365.878967 1704.274536,365.753082 
	C1703.989136,365.742981 1703.427734,367.095886 1703.387085,367.836945 
	C1703.268677,369.993042 1703.111572,372.199280 1703.458374,374.305450 
	C1703.618896,375.281250 1704.985107,376.870392 1705.682251,376.808136 
	C1709.044312,376.507843 1712.364746,375.740021 1716.232056,374.510986 
z"/>
<path fill="#EBEBEC" opacity="1.000000" stroke="none" 
	d="
M1442.862305,396.112366 
	C1442.749146,397.451660 1442.524902,399.310577 1442.084839,399.363098 
	C1438.604492,399.778625 1435.212280,400.006165 1433.442993,395.697906 
	C1432.065918,392.344696 1430.180664,389.144897 1428.112793,386.159973 
	C1427.364868,385.080322 1425.427734,384.384949 1424.036499,384.390106 
	C1423.412720,384.392426 1422.342529,386.519684 1422.262939,387.734314 
	C1422.025391,391.360626 1422.177612,395.012451 1422.177612,399.093872 
	C1419.521240,399.093872 1417.027710,399.093872 1413.925415,399.093872 
	C1413.925415,386.113098 1413.859253,373.356018 1414.060669,360.603149 
	C1414.075439,359.662384 1415.969116,358.027954 1417.071777,357.954529 
	C1421.537964,357.657166 1426.039429,357.741760 1430.522217,357.876526 
	C1437.306885,358.080475 1442.094116,361.574219 1443.702759,367.280762 
	C1445.344360,373.104248 1443.207642,378.487671 1437.724854,382.339844 
	C1437.195312,382.711884 1436.663330,383.080414 1435.789673,383.689484 
	C1438.103638,387.771759 1440.377563,391.783447 1442.862305,396.112366 
M1422.121216,372.451324 
	C1422.222290,373.886047 1422.323242,375.320770 1422.462036,377.291016 
	C1427.156860,376.526733 1432.191528,378.799347 1435.033203,373.833557 
	C1435.893311,372.330536 1435.823608,369.241791 1434.815796,367.916718 
	C1431.517700,363.580200 1426.761963,365.829956 1422.125000,365.471405 
	C1422.125000,367.919769 1422.125000,369.729004 1422.121216,372.451324 
z"/>
<path fill="#EAEAEB" opacity="1.000000" stroke="none" 
	d="
M1260.518555,363.346558 
	C1260.516357,361.428345 1260.516357,359.966431 1260.516357,358.251434 
	C1267.581177,358.251434 1274.223999,357.783325 1280.762451,358.407745 
	C1285.519653,358.862061 1288.880005,362.191254 1290.113403,367.020813 
	C1291.444824,372.234802 1290.415039,376.955902 1286.429199,380.773224 
	C1285.363770,381.793671 1284.060425,382.565704 1282.504639,383.720184 
	C1285.249023,388.679413 1287.969604,393.595398 1290.697876,398.525543 
	C1284.317017,400.826172 1282.641479,400.213196 1279.535889,394.560242 
	C1278.174561,392.082153 1276.684326,389.668060 1275.449463,387.129181 
	C1274.100098,384.355408 1272.170776,383.616821 1268.955688,384.971863 
	C1268.955688,389.492767 1268.955688,394.114349 1268.955688,399.159973 
	C1266.113525,399.159973 1263.717407,399.159973 1260.520752,399.159973 
	C1260.520752,387.333527 1260.520752,375.568207 1260.518555,363.346558 
M1273.390503,365.345612 
	C1271.956055,365.451904 1270.521606,365.558167 1269.100586,365.663452 
	C1269.100586,369.551331 1269.100586,372.963654 1269.100586,376.685089 
	C1272.063721,376.685089 1274.727051,376.978668 1277.297607,376.615753 
	C1281.075928,376.082306 1282.854614,373.470978 1282.090576,369.808075 
	C1281.226685,365.666168 1277.810181,365.206451 1273.390503,365.345612 
z"/>
<path fill="#EBEBEC" opacity="1.000000" stroke="none" 
	d="
M2209.261719,395.953217 
	C2207.399170,392.771271 2205.972900,389.715881 2203.973633,387.098175 
	C2202.829102,385.600067 2200.752686,384.813843 2199.095703,383.707031 
	C2198.659912,384.050873 2198.223877,384.394745 2197.788086,384.738586 
	C2197.788086,389.468719 2197.788086,394.198853 2197.788086,399.246643 
	C2194.917725,399.246643 2192.660889,399.246643 2189.959961,399.246643 
	C2189.959961,385.662170 2189.959961,372.123962 2189.959961,358.463806 
	C2196.665771,358.463806 2203.451172,357.937469 2210.106201,358.641693 
	C2214.845459,359.143188 2218.000977,362.785095 2219.096191,367.588440 
	C2220.239990,372.605011 2219.326172,377.190887 2215.368408,380.816681 
	C2214.395264,381.708099 2213.264893,382.427795 2211.666504,383.634216 
	C2214.346436,388.578979 2217.058350,393.582977 2220.018555,399.044861 
	C2215.838623,399.388947 2211.775879,401.469788 2209.261719,395.953217 
M2202.383789,376.994202 
	C2203.374268,376.965149 2204.365967,376.957764 2205.354980,376.903198 
	C2209.069824,376.698273 2211.360107,374.810242 2211.209473,371.017975 
	C2211.063232,367.339081 2208.821533,365.371826 2205.067871,365.331512 
	C2202.683350,365.305878 2200.298340,365.326721 2197.594727,365.326721 
	C2197.594727,368.627411 2197.736816,371.096252 2197.558350,373.541748 
	C2197.337891,376.565948 2198.888428,377.289886 2202.383789,376.994202 
z"/>
<path fill="#E6E6E7" opacity="1.000000" stroke="none" 
	d="
M847.812805,375.585144 
	C849.835449,361.476837 862.624756,354.699799 874.938721,358.123291 
	C880.889709,359.777802 885.258423,363.217529 887.184509,369.600342 
	C883.281372,372.006531 880.224365,373.352539 876.801514,368.429932 
	C873.901489,364.259338 868.881531,364.706909 864.386353,365.966614 
	C859.623779,367.301270 856.339966,372.469147 856.091248,378.446564 
	C855.857483,384.066498 859.080994,389.379974 863.875305,391.277252 
	C869.185669,393.378723 874.730652,392.187408 878.133972,387.449707 
	C881.456604,382.824463 884.061584,386.623077 887.363708,387.368530 
	C886.090332,392.354553 882.933594,395.389618 878.929626,397.535980 
	C865.232056,404.878784 846.298035,396.404480 847.812805,375.585144 
z"/>
<path fill="#E9E9E9" opacity="1.000000" stroke="none" 
	d="
M1669.011108,378.852081 
	C1668.017700,380.205200 1667.147339,381.831116 1666.009521,382.046844 
	C1663.593262,382.504944 1661.009277,382.480499 1658.546021,382.199432 
	C1654.055298,381.687042 1652.745850,383.532776 1653.017700,387.864990 
	C1653.206543,390.873260 1654.038086,392.001953 1657.091431,391.873413 
	C1661.723145,391.678314 1666.369141,391.822388 1671.397949,391.822388 
	C1671.397949,394.438202 1671.397949,396.657990 1671.397949,399.198181 
	C1662.766968,399.198181 1654.181885,399.198181 1644.838989,399.198181 
	C1644.838989,392.474792 1644.841187,385.880981 1644.838379,379.287140 
	C1644.835938,373.457703 1644.675171,367.621429 1644.936768,361.803986 
	C1644.997681,360.449677 1646.444458,358.046722 1647.324463,358.013702 
	C1655.257690,357.716370 1663.206787,357.839813 1671.044312,357.839813 
	C1672.092285,365.463745 1672.041870,365.528351 1665.191040,365.547607 
	C1661.395874,365.558289 1657.600830,365.549530 1653.524658,365.549530 
	C1653.393555,367.543365 1653.341675,368.988525 1653.195190,370.424042 
	C1652.877441,373.539490 1653.966187,375.097595 1657.374756,374.814331 
	C1660.020264,374.594391 1662.713745,374.965820 1665.361938,374.762085 
	C1668.258301,374.539307 1669.376831,375.693298 1669.011108,378.852081 
z"/>
<path fill="#E5E5E6" opacity="1.000000" stroke="none" 
	d="
M1105.578369,398.557495 
	C1098.731079,401.228760 1092.315186,401.006165 1086.901489,396.472198 
	C1084.704590,394.632263 1083.779541,391.273682 1082.275757,388.606140 
	C1084.427612,387.619781 1086.579590,386.633484 1088.731445,385.647156 
	C1088.587402,386.217926 1088.443237,386.788696 1088.299072,387.359467 
	C1091.589355,389.101257 1094.731079,391.523468 1098.234741,392.288879 
	C1099.908325,392.654449 1102.268921,389.875305 1104.318359,388.520508 
	C1103.014893,386.831360 1102.046265,384.545593 1100.334106,383.584717 
	C1097.329590,381.898804 1093.764404,381.247040 1090.623535,379.761505 
	C1084.982422,377.093475 1082.708252,373.172211 1083.322754,367.963104 
	C1083.881348,363.227814 1087.699585,359.270538 1093.090820,357.839600 
	C1102.375854,355.375153 1109.817993,359.423126 1111.965698,368.274078 
	C1108.494141,370.153076 1105.449707,371.524170 1102.376953,367.044128 
	C1101.408447,365.631897 1098.158203,365.134766 1096.069824,365.351379 
	C1094.476196,365.516724 1092.130737,367.287170 1091.860474,368.681152 
	C1091.625122,369.894287 1093.523682,372.194275 1095.014160,372.929199 
	C1098.117188,374.459198 1101.647949,375.092438 1104.868408,376.420471 
	C1109.688477,378.408142 1112.817383,381.907074 1112.995117,387.363312 
	C1113.165649,392.597443 1110.587158,396.197815 1105.578369,398.557495 
z"/>
<path fill="#ECECEC" opacity="1.000000" stroke="none" 
	d="
M1369.341309,399.537445 
	C1367.413940,399.470886 1365.944092,399.404266 1363.785278,399.306396 
	C1363.785278,392.150177 1363.796997,385.229156 1363.781738,378.308228 
	C1363.769165,372.651123 1363.556274,366.986053 1363.826416,361.343353 
	C1363.884766,360.122772 1365.592285,357.998962 1366.601196,357.962097 
	C1374.375366,357.678101 1382.164429,357.805725 1390.192627,357.805725 
	C1390.192627,360.449036 1390.192627,362.543365 1390.192627,365.370605 
	C1384.139160,365.370605 1378.255249,365.370605 1372.387695,365.370605 
	C1372.387695,368.850372 1372.387695,371.591003 1372.387695,374.861420 
	C1377.650391,374.861420 1382.567505,374.861420 1387.354126,374.861420 
	C1388.782227,381.666870 1388.479248,382.057373 1382.482300,382.134460 
	C1379.657104,382.170807 1376.831909,382.267914 1374.009521,382.396027 
	C1373.548218,382.416962 1373.100830,382.741943 1372.329468,383.055420 
	C1372.254517,384.071289 1372.259277,385.198273 1372.075073,386.293518 
	C1371.356445,390.565155 1372.828003,392.385101 1377.409180,391.952271 
	C1381.506836,391.565155 1385.670044,391.870850 1390.175903,391.870850 
	C1390.175903,394.463654 1390.175903,396.682709 1390.175903,399.537354 
	C1383.347656,399.537354 1376.573242,399.537354 1369.341309,399.537445 
z"/>
<path fill="#EDEDED" opacity="1.000000" stroke="none" 
	d="
M1014.069702,399.509277 
	C1010.470093,399.512085 1007.356262,399.512085 1004.012329,399.512085 
	C1004.012329,385.483826 1004.012329,372.050659 1004.012329,358.215271 
	C1012.682556,358.215271 1021.210083,358.215271 1029.942017,358.215271 
	C1029.942017,360.561798 1029.942017,362.655273 1029.942017,365.472382 
	C1023.985779,365.472382 1018.261108,365.472382 1012.041260,365.472382 
	C1012.041260,367.980560 1011.624146,369.911835 1012.172791,371.512024 
	C1012.614807,372.801117 1014.144348,374.492584 1015.329468,374.609772 
	C1019.260559,374.998566 1023.254089,374.756683 1027.093140,374.756683 
	C1028.725464,381.713562 1028.414429,382.144806 1022.043457,382.212891 
	C1018.903381,382.246429 1015.762573,382.218719 1012.288208,382.218719 
	C1012.288208,385.552887 1012.288208,388.296936 1012.288208,391.708282 
	C1018.197449,391.708282 1024.085815,391.708282 1030.288818,391.708282 
	C1030.288818,394.456818 1030.288818,396.551117 1030.288818,399.506439 
	C1025.069092,399.506439 1019.812317,399.506439 1014.069702,399.509277 
z"/>
<path fill="#ECECEC" opacity="1.000000" stroke="none" 
	d="
M1862.567871,391.717743 
	C1866.427246,391.865356 1869.751709,391.902679 1873.076172,391.928467 
	C1879.596436,391.979034 1879.596436,391.976379 1879.059204,399.057617 
	C1870.444702,399.057617 1861.780151,399.057617 1852.784790,399.057617 
	C1852.784790,385.450043 1852.784790,371.931244 1852.784790,358.184021 
	C1861.584473,358.184021 1870.128784,358.184021 1878.608643,358.184021 
	C1879.833008,365.140167 1879.692627,365.345245 1873.289673,365.424805 
	C1869.342163,365.473877 1865.393555,365.433899 1861.137085,365.433899 
	C1861.027710,367.810638 1860.991089,369.435699 1860.869751,371.054443 
	C1860.666626,373.764252 1861.726929,375.010376 1864.595947,374.886261 
	C1868.365601,374.723206 1872.147705,374.846222 1875.774658,374.846222 
	C1877.045654,381.839233 1876.894531,382.044128 1870.657471,382.125885 
	C1867.701538,382.164612 1864.744751,382.132538 1860.605347,382.132538 
	C1861.161743,385.823944 1861.597290,388.713074 1862.567871,391.717743 
z"/>
<path fill="#E6E7E7" opacity="1.000000" stroke="none" 
	d="
M805.269653,357.809570 
	C812.367065,357.813293 819.000610,357.813293 825.533569,357.813293 
	C826.841919,365.362885 826.775635,365.454254 820.002441,365.481964 
	C816.183655,365.497559 812.364685,365.484741 808.176880,365.484741 
	C808.176880,368.725739 808.176880,371.599915 808.176880,374.940308 
	C813.417297,374.940308 818.361511,374.940308 823.192261,374.940308 
	C824.638611,381.707489 824.347778,382.122345 818.364685,382.179260 
	C815.059753,382.210693 811.754272,382.184906 808.125854,382.184906 
	C808.125854,385.681915 808.125854,388.576233 808.125854,391.951172 
	C814.169983,391.951172 819.946350,391.951172 825.986084,391.951172 
	C825.986084,394.541748 825.986084,396.656525 825.986084,399.163055 
	C817.348267,399.163055 808.642334,399.163055 799.194519,399.163055 
	C799.194519,385.973175 799.093506,373.030731 799.434875,360.099915 
	C799.456299,359.288574 802.935364,358.568451 805.269653,357.809570 
z"/>
<path fill="#EAEAEB" opacity="1.000000" stroke="none" 
	d="
M1771.781250,362.977112 
	C1776.076782,375.052673 1780.283081,386.757446 1784.488403,398.459229 
	C1778.164551,400.749908 1776.419189,400.193726 1774.396973,394.831909 
	C1773.374634,392.121033 1771.979614,390.660583 1768.934082,391.020294 
	C1767.292480,391.214172 1765.571289,391.263336 1763.949341,390.994690 
	C1759.122314,390.195129 1756.266846,391.727356 1754.934570,396.779602 
	C1753.548584,402.035187 1749.115601,398.376740 1744.915039,400.360107 
	C1747.332642,393.659180 1749.226074,388.446106 1751.094604,383.224121 
	C1753.503662,376.491974 1755.871704,369.745087 1758.301636,363.020538 
	C1759.214600,360.494232 1759.317749,357.451538 1763.541138,357.736938 
	C1767.302979,357.991180 1771.015015,357.519714 1771.781250,362.977112 
M1761.093872,378.639862 
	C1760.706787,380.177032 1760.319580,381.714172 1759.886230,383.435059 
	C1763.560059,383.435059 1766.740723,383.435059 1770.889282,383.435059 
	C1768.982544,378.136688 1767.327637,373.537903 1765.672729,368.939087 
	C1765.244141,368.993103 1764.815674,369.047150 1764.387207,369.101166 
	C1763.354370,372.019287 1762.321411,374.937378 1761.093872,378.639862 
z"/>
<path fill="#EAEBEB" opacity="1.000000" stroke="none" 
	d="
M1212.451904,365.110901 
	C1214.237183,362.120087 1213.164062,357.602295 1218.650879,357.665283 
	C1222.957275,357.714722 1224.970703,358.793854 1226.388916,363.121735 
	C1230.303589,375.067291 1234.893677,386.791534 1239.222534,398.619965 
	C1232.595581,400.636963 1231.726196,400.064880 1228.787964,394.342529 
	C1228.019897,392.846588 1225.781372,391.739532 1223.996948,391.232849 
	C1222.151001,390.708710 1220.011230,391.336792 1218.043823,391.098602 
	C1213.699585,390.572601 1210.885010,391.756561 1209.588867,396.420197 
	C1208.085327,401.829468 1203.872437,398.846619 1200.112549,399.164429 
	C1204.324097,387.554504 1208.328003,376.517181 1212.451904,365.110901 
M1224.651611,381.754303 
	C1223.161499,377.484589 1221.671265,373.214874 1220.181152,368.945160 
	C1219.779907,368.988190 1219.378662,369.031219 1218.977417,369.074280 
	C1217.498413,373.766174 1216.019531,378.458069 1214.087280,384.588135 
	C1218.591797,383.716370 1221.612793,383.131714 1224.651611,381.754303 
z"/>
<path fill="#ECECEC" opacity="1.000000" stroke="none" 
	d="
M2163.066650,391.873291 
	C2164.622314,393.934113 2165.769775,395.989075 2167.505371,399.098083 
	C2157.099365,399.098083 2148.551514,399.098083 2139.700684,399.098083 
	C2139.700684,385.472931 2139.700684,371.931854 2139.700684,358.110291 
	C2148.417969,358.110291 2156.818604,358.110291 2165.169678,358.110291 
	C2166.272705,365.239410 2166.152344,365.396606 2159.800049,365.403992 
	C2156.004150,365.408386 2152.208008,365.404785 2148.021973,365.404785 
	C2148.021973,368.780975 2148.021973,371.480896 2148.021973,374.738861 
	C2153.163330,374.738861 2158.085693,374.738861 2162.866943,374.738861 
	C2164.386475,381.765411 2164.077637,382.170746 2157.696289,382.234467 
	C2156.863770,382.242767 2156.031006,382.248840 2155.198486,382.255127 
	C2146.716553,382.319183 2146.716553,382.319122 2148.062744,391.867432 
	C2152.835205,391.867432 2157.746826,391.867432 2163.066650,391.873291 
z"/>
<path fill="#EEEEEE" opacity="1.000000" stroke="none" 
	d="
M1998.866821,374.800903 
	C2003.181152,374.806671 2006.988403,374.806671 2010.652954,374.806671 
	C2012.529419,381.315857 2012.045410,382.062439 2006.226685,382.134125 
	C2002.932129,382.174713 1999.636719,382.141449 1995.992920,382.141449 
	C1995.992920,385.559387 1995.992920,388.285309 1995.992920,391.768951 
	C2001.898560,391.768951 2007.766724,391.768951 2013.877686,391.768951 
	C2013.877686,394.602722 2013.877686,396.692291 2013.877686,399.145355 
	C2005.172119,399.145355 1996.623657,399.145355 1987.809814,399.145355 
	C1987.809814,385.490875 1987.809814,372.060425 1987.809814,358.247131 
	C1996.250610,358.247131 2004.633423,358.247131 2013.015015,358.247131 
	C2014.759277,364.871368 2014.363159,365.424866 2007.791992,365.457275 
	C2003.988159,365.476044 2000.184082,365.460693 1995.607056,365.460693 
	C1996.923828,368.933716 1992.511719,373.011230 1998.866821,374.800903 
z"/>
<path fill="#EAEBEB" opacity="1.000000" stroke="none" 
	d="
M1609.329102,385.321411 
	C1608.223511,385.360321 1607.544556,385.469177 1606.896362,385.372375 
	C1602.183716,384.668488 1600.062622,386.519501 1600.866943,391.361664 
	C1600.947632,391.846802 1600.876587,392.357178 1600.876221,392.855835 
	C1600.870117,400.182098 1600.870117,400.182098 1592.890381,398.989471 
	C1592.890381,385.523224 1592.890381,371.999878 1592.890381,358.365021 
	C1599.418457,358.365021 1605.882690,357.873016 1612.232544,358.514404 
	C1617.710693,359.067688 1621.829834,364.254395 1622.643311,369.855469 
	C1623.426270,375.246155 1620.531738,380.867554 1615.395508,383.455658 
	C1613.653442,384.333466 1611.652466,384.697388 1609.329102,385.321411 
M1601.861694,377.631134 
	C1604.165649,377.697601 1606.508911,378.060486 1608.764160,377.760468 
	C1612.084839,377.318695 1614.068481,375.363037 1614.048340,371.729614 
	C1614.028809,368.211121 1612.390991,365.985138 1608.926636,365.575500 
	C1606.385742,365.274994 1603.780762,365.516602 1600.620361,365.516602 
	C1600.845825,369.816650 1601.033691,373.402771 1601.861694,377.631134 
z"/>
<path fill="#DFE0E0" opacity="1.000000" stroke="none" 
	d="
M2052.978516,357.773834 
	C2056.466553,357.799194 2059.468262,357.969086 2062.451172,357.802948 
	C2065.439453,357.636566 2066.556152,358.653198 2066.496338,361.782349 
	C2066.434082,365.040222 2064.952881,365.753418 2062.137207,365.558258 
	C2059.869385,365.401093 2057.581787,365.526428 2054.794922,365.526428 
	C2054.794922,376.987885 2054.794922,387.888702 2054.794922,398.630920 
	C2047.169067,400.848083 2046.208618,400.220795 2046.204224,393.474304 
	C2046.198486,384.507996 2046.202881,375.541687 2046.202881,366.038605 
	C2042.394287,365.771393 2039.011475,365.534027 2035.101685,365.259705 
	C2034.996338,362.957184 2034.894409,360.732788 2034.758789,357.771057 
	C2040.940796,357.771057 2046.712280,357.771057 2052.978516,357.773834 
z"/>
<path fill="#E0E0E1" opacity="1.000000" stroke="none" 
	d="
M2105.719238,389.778809 
	C2105.711426,391.246857 2105.716309,392.246429 2105.697998,393.245605 
	C2105.569580,400.232513 2105.371826,400.381866 2097.461914,398.923370 
	C2097.461914,388.169830 2097.461914,377.277191 2097.461914,365.570679 
	C2094.426270,365.570679 2091.991211,365.435516 2089.577393,365.603790 
	C2086.321045,365.830780 2085.726562,364.108948 2085.659668,361.319519 
	C2085.585693,358.256409 2087.097412,357.748047 2089.675781,357.773346 
	C2098.644775,357.861206 2107.614990,357.807312 2117.038330,357.807312 
	C2116.777100,360.838165 2119.685547,364.282562 2114.939453,365.377594 
	C2112.281494,365.990814 2109.366455,365.487946 2105.720947,365.487946 
	C2105.720947,373.804321 2105.720947,381.557220 2105.719238,389.778809 
z"/>
<path fill="#E6E6E7" opacity="1.000000" stroke="none" 
	d="
M1321.952881,374.979034 
	C1321.952393,371.817993 1321.952393,369.162384 1321.952393,365.934875 
	C1319.841187,365.800842 1317.936157,365.604187 1316.028442,365.572693 
	C1309.768188,365.469208 1309.506470,365.144440 1310.757446,358.152374 
	C1320.931763,358.152374 1331.162598,358.152374 1343.122803,358.152374 
	C1341.638062,361.195007 1341.100464,364.440460 1339.417725,365.222778 
	C1337.116089,366.292786 1333.943970,365.490051 1330.603882,365.490051 
	C1330.603882,376.876251 1330.603882,387.772034 1330.603882,399.111755 
	C1327.542480,399.111755 1325.022095,399.111755 1321.953369,399.111755 
	C1321.953369,391.068573 1321.953369,383.276520 1321.952881,374.979034 
z"/>
<path fill="#E9E9E9" opacity="1.000000" stroke="none" 
	d="
M1818.912354,380.004425 
	C1818.911865,386.621094 1818.911865,392.739288 1818.911865,399.193237 
	C1816.021484,399.193237 1813.615356,399.193237 1810.595459,399.193237 
	C1810.595459,388.092072 1810.595459,377.203796 1810.595459,366.792908 
	C1806.636841,363.501343 1796.476929,369.749268 1799.458618,358.125549 
	C1809.553955,358.125549 1819.619019,358.125549 1829.635010,358.125549 
	C1831.153320,364.678741 1831.153320,364.678741 1818.912720,365.924866 
	C1818.912720,370.369385 1818.912720,374.937653 1818.912354,380.004425 
z"/>
<path fill="#E2E3E3" opacity="1.000000" stroke="none" 
	d="
M914.254395,399.608307 
	C912.885803,398.599731 911.095825,397.609619 911.080383,396.592529 
	C910.888550,383.978363 910.955017,371.360291 910.955017,358.302124 
	C913.621765,358.302124 916.001526,358.302124 918.819580,358.302124 
	C918.819580,371.752991 918.819580,385.281250 918.819580,399.285675 
	C917.502502,399.389648 916.080078,399.501923 914.254395,399.608307 
z"/>
<path fill="#E7A33A" opacity="1.000000" stroke="none" 
	d="
M215.771408,403.745880 
	C217.918610,403.817566 220.077682,403.973816 222.236801,403.974701 
	C268.349518,403.993561 314.462219,403.987793 360.574890,404.024658 
	C362.532471,404.026245 364.489807,404.391876 366.704498,404.923370 
	C364.983368,405.457794 363.005188,405.828339 361.026581,405.830536 
	C314.915070,405.881348 268.803528,405.895844 222.691971,405.898438 
	C220.697479,405.898560 218.702988,405.721252 216.308411,405.075165 
	C215.860443,404.275146 215.812592,404.026550 215.764740,403.777985 
	C215.764740,403.777985 215.783295,403.758087 215.771408,403.745880 
z"/>
<path fill="#DFE0E0" opacity="1.000000" stroke="none" 
	d="
M2249.755859,391.397217 
	C2249.879395,394.009888 2250.363037,396.684174 2249.390625,398.631378 
	C2248.930908,399.551910 2245.167969,399.875183 2243.842773,399.016571 
	C2242.505615,398.150238 2241.617676,395.410065 2241.804932,393.624237 
	C2242.167725,390.163208 2245.249756,389.358063 2249.755859,391.397217 
z"/>
<path fill="#DFE0E0" opacity="1.000000" stroke="none" 
	d="
M1475.528076,396.888245 
	C1473.479736,398.062653 1471.571167,399.537476 1469.630249,399.581543 
	C1468.474609,399.607758 1466.586792,397.559387 1466.222778,396.137756 
	C1465.404419,392.941925 1467.101074,390.411957 1470.399536,390.224915 
	C1474.521484,389.991241 1476.192627,392.566620 1475.528076,396.888245 
z"/>
<path fill="#E7A33A" opacity="1.000000" stroke="none" 
	d="
M216.224335,279.553772 
	C217.252304,278.930908 218.751358,278.050964 220.253448,278.045837 
	C244.539749,277.962494 268.826477,277.979797 293.112946,278.033264 
	C294.037354,278.035309 294.960480,278.630402 295.677124,279.217712 
	C278.522308,279.569519 261.574646,279.671753 244.626846,279.728607 
	C235.316986,279.759827 226.006836,279.714539 216.224335,279.553772 
z"/>
<path fill="#CF933A" opacity="1.000000" stroke="none" 
	d="
M215.504959,403.919525 
	C215.812592,404.026550 215.860443,404.275146 215.917038,404.904419 
	C215.698914,404.877106 215.472046,404.469086 215.504959,403.919525 
z"/>
<path fill="#E7A33A" opacity="1.000000" stroke="none" 
	d="
M216.995773,271.859375 
	C216.995804,273.025940 216.995804,273.822327 216.995804,274.618713 
	C216.784439,274.623810 216.573074,274.628906 216.361710,274.634003 
	C216.361710,272.484009 216.361710,270.334015 216.361710,268.184052 
	C216.523407,268.176422 216.685104,268.168823 216.846802,268.161224 
	C216.896454,269.270569 216.946106,270.379883 216.995773,271.859375 
z"/>
<path fill="#0B0D12" opacity="1.000000" stroke="none" 
	d="
M828.636108,180.907379 
	C829.113159,184.076797 829.666260,186.879089 829.672363,189.682587 
	C829.717529,210.505066 829.672913,231.327820 829.614746,252.150391 
	C829.595459,259.058319 827.288940,261.414368 820.264404,261.446411 
	C802.773743,261.526215 785.282471,261.527344 767.791687,261.481049 
	C761.993896,261.465729 759.648987,259.108734 759.639221,253.228806 
	C759.594177,226.242722 759.669556,199.256363 759.571960,172.270569 
	C759.559814,168.927048 760.368164,167.569702 764.023621,167.605759 
	C778.180969,167.745499 792.343811,167.391068 806.499817,167.579727 
	C816.126526,167.708038 823.884827,171.570831 828.636108,180.907379 
z"/>
<path fill="#1D2024" opacity="1.000000" stroke="none" 
	d="
M1947.928711,381.675354 
	C1949.862793,381.812439 1951.803101,381.419708 1952.732544,382.212372 
	C1954.318481,383.564606 1956.284180,385.715851 1956.191650,387.428802 
	C1956.105347,389.023712 1953.764893,391.372833 1952.023071,391.805573 
	C1949.095215,392.533081 1945.855469,392.004761 1942.889771,392.004761 
	C1941.270142,382.504272 1941.567383,381.895447 1947.928711,381.675354 
z"/>
<path fill="#252628" opacity="1.000000" stroke="none" 
	d="
M1950.355225,365.264282 
	C1952.290283,366.922638 1953.821533,368.545654 1955.352783,370.168671 
	C1953.465698,371.697083 1951.786865,373.772247 1949.630493,374.593292 
	C1947.647339,375.348450 1945.150391,374.753906 1943.000732,374.753906 
	C1941.036987,365.695221 1941.422363,365.201202 1950.355225,365.264282 
z"/>
<path fill="#13151A" opacity="1.000000" stroke="none" 
	d="
M1551.417847,392.007050 
	C1544.935181,393.036774 1540.184570,391.032867 1537.153564,385.609222 
	C1534.522461,380.900940 1535.250366,373.750610 1538.741455,369.626495 
	C1542.345703,365.368530 1546.973755,364.286041 1552.260864,365.708435 
	C1557.505737,367.119415 1561.190674,372.008453 1561.562500,377.984039 
	C1561.961670,384.399933 1558.397095,389.502502 1551.417847,392.007050 
z"/>
<path fill="#15181C" opacity="1.000000" stroke="none" 
	d="
M766.163940,371.133270 
	C769.537720,380.097687 768.073425,387.731506 761.937012,390.212006 
	C758.001587,391.802826 753.404114,391.755798 748.605408,392.522552 
	C748.605408,383.088898 748.605408,374.720642 748.605408,365.783356 
	C755.060486,365.457214 761.514160,364.224579 766.163940,371.133270 
z"/>
<path fill="#13151A" opacity="1.000000" stroke="none" 
	d="
M967.720093,368.094849 
	C972.751831,373.467834 973.762085,380.496796 970.577820,386.143341 
	C967.919556,390.857269 962.076172,393.186920 955.343811,391.816559 
	C954.281067,391.600281 952.820068,389.772247 952.786987,388.652740 
	C952.591492,382.033539 952.642334,375.398224 952.930115,368.782257 
	C952.978210,367.678131 954.691101,365.661774 955.467773,365.739258 
	C959.481628,366.139862 963.441284,367.084351 967.720093,368.094849 
z"/>
<path fill="#252628" opacity="1.000000" stroke="none" 
	d="
M1715.966064,374.824524 
	C1712.364746,375.740021 1709.044312,376.507843 1705.682251,376.808136 
	C1704.985107,376.870392 1703.618896,375.281250 1703.458374,374.305450 
	C1703.111572,372.199280 1703.268677,369.993042 1703.387085,367.836945 
	C1703.427734,367.095886 1703.989136,365.742981 1704.274536,365.753082 
	C1707.841187,365.878967 1711.744141,365.392456 1714.863525,366.711731 
	C1717.850952,367.975220 1718.106567,371.470184 1715.966064,374.824524 
z"/>
<path fill="#252628" opacity="1.000000" stroke="none" 
	d="
M1422.123047,371.994751 
	C1422.125000,369.729004 1422.125000,367.919769 1422.125000,365.471405 
	C1426.761963,365.829956 1431.517700,363.580200 1434.815796,367.916718 
	C1435.823608,369.241791 1435.893311,372.330536 1435.033203,373.833557 
	C1432.191528,378.799347 1427.156860,376.526733 1422.462036,377.291016 
	C1422.323242,375.320770 1422.222290,373.886047 1422.123047,371.994751 
z"/>
<path fill="#1D2024" opacity="1.000000" stroke="none" 
	d="
M1273.825928,365.352051 
	C1277.810181,365.206451 1281.226685,365.666168 1282.090576,369.808075 
	C1282.854614,373.470978 1281.075928,376.082306 1277.297607,376.615753 
	C1274.727051,376.978668 1272.063721,376.685089 1269.100586,376.685089 
	C1269.100586,372.963654 1269.100586,369.551331 1269.100586,365.663452 
	C1270.521606,365.558167 1271.956055,365.451904 1273.825928,365.352051 
z"/>
<path fill="#1D2024" opacity="1.000000" stroke="none" 
	d="
M2201.924805,376.997498 
	C2198.888428,377.289886 2197.337891,376.565948 2197.558350,373.541748 
	C2197.736816,371.096252 2197.594727,368.627411 2197.594727,365.326721 
	C2200.298340,365.326721 2202.683350,365.305878 2205.067871,365.331512 
	C2208.821533,365.371826 2211.063232,367.339081 2211.209473,371.017975 
	C2211.360107,374.810242 2209.069824,376.698273 2205.354980,376.903198 
	C2204.365967,376.957764 2203.374268,376.965149 2201.924805,376.997498 
z"/>
<path fill="#2E3032" opacity="1.000000" stroke="none" 
	d="
M1761.191162,378.247681 
	C1762.321411,374.937378 1763.354370,372.019287 1764.387207,369.101166 
	C1764.815674,369.047150 1765.244141,368.993103 1765.672729,368.939087 
	C1767.327637,373.537903 1768.982544,378.136688 1770.889282,383.435059 
	C1766.740723,383.435059 1763.560059,383.435059 1759.886230,383.435059 
	C1760.319580,381.714172 1760.706787,380.177032 1761.191162,378.247681 
z"/>
<path fill="#2E3032" opacity="1.000000" stroke="none" 
	d="
M1224.642700,382.150696 
	C1221.612793,383.131714 1218.591797,383.716370 1214.087280,384.588135 
	C1216.019531,378.458069 1217.498413,373.766174 1218.977417,369.074280 
	C1219.378662,369.031219 1219.779907,368.988190 1220.181152,368.945160 
	C1221.671265,373.214874 1223.161499,377.484589 1224.642700,382.150696 
z"/>
<path fill="#1D2024" opacity="1.000000" stroke="none" 
	d="
M1601.541748,377.309998 
	C1601.033691,373.402771 1600.845825,369.816650 1600.620361,365.516602 
	C1603.780762,365.516602 1606.385742,365.274994 1608.926636,365.575500 
	C1612.390991,365.985138 1614.028809,368.211121 1614.048340,371.729614 
	C1614.068481,375.363037 1612.084839,377.318695 1608.764160,377.760468 
	C1606.508911,378.060486 1604.165649,377.697601 1601.541748,377.309998 
z"/>
</svg>