<svg width="823" height="164" viewBox="0 21 1248 248" fill="none" xmlns="http://www.w3.org/2000/svg">
<path d="M0 21H122C194 21 252 79 252 145C252 211 194 269 122 269H0L34 223H122C165 223 203 187 203 145C203 103 165 67 122 67H34L0 21Z" fill="#2776EA"/>
<path d="M12 122.07H97.3731L71.9254 94H126.104L177 144L126.104 194H71.9254L97.3731 165.93H12V122.07Z" fill="#2776EA"/>
<path d="M314 2C314 0.89543 313.105 0 312 0C310.895 0 310 0.89543 310 2V288C310 289.105 310.895 290 312 290C313.105 290 314 289.105 314 288V2Z" fill="#2776EA"/>
<g transform="translate(-55.61, 0)">
<path d="M450.62 155.37H480C484.16 155.37 487.8 154.893 490.92 153.94C494.04 152.987 496.64 151.47 498.72 149.39C500.8 147.267 502.36 144.537 503.4 141.2C504.44 137.82 504.96 133.725 504.96 128.915C504.96 124.278 504.418 120.357 503.335 117.15C502.295 113.943 500.713 111.343 498.59 109.35C496.51 107.313 493.91 105.862 490.79 104.995C487.713 104.085 484.117 103.63 480 103.63H450.62V155.37ZM427.61 175V84H483.9C490.313 84 496.25 84.9317 501.71 86.795C507.213 88.6583 511.958 91.475 515.945 95.245C519.932 99.015 523.052 103.76 525.305 109.48C527.558 115.157 528.685 121.83 528.685 129.5C528.685 137.647 527.493 144.602 525.11 150.365C522.77 156.128 519.585 160.83 515.555 164.47C511.525 168.11 506.78 170.775 501.32 172.465C495.86 174.155 490.053 175 483.9 175H427.61Z" fill="#0D1B2A"/>
<path d="M548.215 175V84H633.69V103.305H571.225V119.425H608.6V137.69H571.225V155.695H634.99V175H548.215Z" fill="#0D1B2A"/>
<path d="M653.544 102.07C653.544 95.0067 655.472 90.0883 659.329 87.315C663.186 84.4983 669.122 83.09 677.139 83.09H720.494C728.554 83.09 734.512 84.4983 738.369 87.315C742.226 90.0883 744.154 95.0067 744.154 102.07V114.355L721.144 118.58V103.11H676.554V155.89H721.664V138.73L744.674 143.215V156.15C744.674 163.56 742.789 168.717 739.019 171.62C735.249 174.48 729.226 175.91 720.949 175.91H677.139C668.862 175.91 662.861 174.48 659.134 171.62C655.407 168.717 653.544 163.56 653.544 156.15V102.07Z" fill="#0D1B2A"/>
<path d="M765.305 175V84H788.315V175H765.305Z" fill="#0D1B2A"/>
<path d="M816.79 102.07C816.79 95.0067 818.718 90.0883 822.575 87.315C826.432 84.4983 832.368 83.09 840.385 83.09H888.55C896.61 83.09 902.568 84.4983 906.425 87.315C910.282 90.0883 912.21 95.0067 912.21 102.07V108.115L889.2 112.73V102.395H839.8V156.605H889.59V139.77H864.5V121.505H912.6V156.15C912.6 163.56 910.715 168.717 906.945 171.62C903.175 174.48 897.173 175.91 888.94 175.91H840.385C832.108 175.91 826.107 174.48 822.38 171.62C818.653 168.717 816.79 163.56 816.79 156.15V102.07Z" fill="#2776EA"/>
<path d="M935.407 175V84H1020.88V103.305H958.417V119.425H995.792V137.69H958.417V155.695H1022.18V175H935.407Z" fill="#2776EA"/>
<path d="M1042.05 175V84H1059.47L1119.01 141.005V84H1140.33V175H1122.91L1063.37 118.45V175H1042.05Z" fill="#2776EA"/>
<path d="M1189.43 175V104.41H1154.85V84H1247.08V104.41H1212.44V175H1189.43Z" fill="#2776EA"/>
<path d="M427.712 248.419H437.55C438.789 248.419 439.878 248.269 440.817 247.968C441.768 247.655 442.563 247.155 443.201 246.466C443.839 245.765 444.321 244.858 444.647 243.744C444.972 242.63 445.135 241.272 445.135 239.67C445.135 238.13 444.966 236.828 444.628 235.765C444.302 234.701 443.814 233.837 443.163 233.174C442.525 232.51 441.737 232.035 440.798 231.747C439.859 231.446 438.776 231.296 437.55 231.296H427.712V248.419ZM422.755 253V226.715H437.85C439.602 226.715 441.236 226.984 442.75 227.522C444.277 228.061 445.604 228.874 446.731 229.963C447.857 231.052 448.74 232.423 449.378 234.075C450.029 235.714 450.354 237.642 450.354 239.857C450.354 242.211 450.023 244.22 449.359 245.884C448.708 247.549 447.82 248.907 446.693 249.958C445.567 251.01 444.24 251.78 442.713 252.268C441.198 252.756 439.577 253 437.85 253H422.755Z" fill="#0D1B2A"/>
<path d="M455.978 253V226.715H479.221V231.296H460.935V237.229H471.974V241.81H460.935V248.419H479.597V253H455.978Z" fill="#0D1B2A"/>
<path d="M485.044 231.596C485.044 229.757 485.538 228.442 486.527 227.654C487.529 226.853 489.175 226.452 491.465 226.452H503.068C505.384 226.452 507.036 226.853 508.025 227.654C509.026 228.442 509.527 229.757 509.527 231.596V235.276L504.57 236.178V231.033H490.001V248.682H504.72V243.049L509.677 244.026V247.893C509.677 249.833 509.182 251.216 508.194 252.042C507.217 252.856 505.559 253.263 503.218 253.263H491.465C489.124 253.263 487.466 252.856 486.49 252.042C485.526 251.216 485.044 249.833 485.044 247.893V231.596Z" fill="#0D1B2A"/>
<path d="M515.787 253V226.715H520.743V253H515.787Z" fill="#0D1B2A"/>
<path d="M533.211 248.419H543.049C544.288 248.419 545.377 248.269 546.316 247.968C547.267 247.655 548.062 247.155 548.7 246.466C549.339 245.765 549.821 244.858 550.146 243.744C550.471 242.63 550.634 241.272 550.634 239.67C550.634 238.13 550.465 236.828 550.127 235.765C549.802 234.701 549.314 233.837 548.663 233.174C548.024 232.51 547.236 232.035 546.297 231.747C545.358 231.446 544.276 231.296 543.049 231.296H533.211V248.419ZM528.254 253V226.715H543.349C545.102 226.715 546.735 226.984 548.25 227.522C549.777 228.061 551.104 228.874 552.23 229.963C553.357 231.052 554.239 232.423 554.877 234.075C555.528 235.714 555.854 237.642 555.854 239.857C555.854 242.211 555.522 244.22 554.859 245.884C554.208 247.549 553.319 248.907 552.193 249.958C551.066 251.01 549.739 251.78 548.212 252.268C546.698 252.756 545.077 253 543.349 253H528.254Z" fill="#0D1B2A"/>
<path d="M561.477 253V226.715H584.721V231.296H566.434V237.229H577.474V241.81H566.434V248.419H585.096V253H561.477Z" fill="#0D1B2A"/>
<path d="M601.009 246.166L605.74 245.19V248.682H621.474V241.998H607.993C607.004 241.998 606.109 241.923 605.308 241.773C604.52 241.622 603.844 241.353 603.281 240.965C602.73 240.565 602.304 240.014 602.004 239.313C601.716 238.6 601.572 237.692 601.572 236.591V231.596C601.572 230.52 601.729 229.65 602.042 228.987C602.354 228.311 602.793 227.785 603.356 227.41C603.919 227.034 604.595 226.784 605.384 226.659C606.172 226.521 607.042 226.452 607.993 226.452H619.371C620.335 226.452 621.211 226.521 621.999 226.659C622.788 226.784 623.464 227.034 624.027 227.41C624.603 227.785 625.047 228.311 625.36 228.987C625.673 229.65 625.83 230.52 625.83 231.596V233.474L621.098 234.413V231.033H606.304V237.417H619.746C620.71 237.417 621.586 237.486 622.375 237.623C623.163 237.748 623.839 237.999 624.403 238.374C624.978 238.75 625.423 239.275 625.736 239.951C626.049 240.615 626.205 241.485 626.205 242.561V247.893C626.205 250.109 625.629 251.561 624.478 252.249C623.339 252.925 621.762 253.263 619.746 253.263H607.43C606.441 253.263 605.546 253.188 604.745 253.038C603.957 252.9 603.281 252.637 602.717 252.249C602.167 251.848 601.741 251.298 601.441 250.597C601.153 249.896 601.009 248.995 601.009 247.893V246.166Z" fill="#0D1B2A"/>
<path d="M632.397 253V226.715H636.828L647.379 242.073L657.706 226.715H662.174V253H657.217V235.014L647.004 250.184L636.828 235.37V253H632.397Z" fill="#0D1B2A"/>
<path d="M665.935 253L679.416 226.715H683.321L696.989 253H691.131L687.996 246.879H674.515L671.38 253H665.935ZM676.825 242.373H685.687L681.256 233.756L676.825 242.373Z" fill="#0D1B2A"/>
<path d="M700.75 253V226.715H718.436C720.338 226.715 721.89 227.04 723.092 227.691C724.294 228.33 724.894 229.719 724.894 231.859V237.886C724.894 239.513 724.356 240.734 723.28 241.547C722.216 242.361 720.601 242.768 718.436 242.768H716.802L727.241 253H720.576L710.156 242.768H705.706V253H700.75ZM705.706 238.187H717.948C718.611 238.187 719.105 238.061 719.431 237.811C719.769 237.561 719.938 237.06 719.938 236.309V233.174C719.938 232.51 719.769 232.035 719.431 231.747C719.105 231.446 718.611 231.296 717.948 231.296H705.706V238.187Z" fill="#0D1B2A"/>
<path d="M739.345 253V231.296H728.906V226.715H754.741V231.296H744.302V253H739.345Z" fill="#0D1B2A"/>
<path d="M758.871 253V226.715H782.115V231.296H763.828V237.229H774.868V241.81H763.828V248.419H782.49V253H758.871Z" fill="#0D1B2A"/>
<path d="M788.317 253V226.715H806.003C807.906 226.715 809.458 227.04 810.66 227.691C811.861 228.33 812.462 229.719 812.462 231.859V237.886C812.462 239.513 811.924 240.734 810.847 241.547C809.783 242.361 808.169 242.768 806.003 242.768H804.37L814.809 253H808.144L797.724 242.768H793.274V253H788.317ZM793.274 238.187H805.515C806.179 238.187 806.673 238.061 806.999 237.811C807.336 237.561 807.505 237.06 807.505 236.309V233.174C807.505 232.51 807.336 232.035 806.999 231.747C806.673 231.446 806.179 231.296 805.515 231.296H793.274V238.187Z" fill="#0D1B2A"/>
<path d="M819.405 250.916V249.433C819.405 248.356 819.499 247.724 819.686 247.536C819.887 247.336 820.538 247.236 821.639 247.236H823.066C824.167 247.236 824.818 247.33 825.018 247.518C825.219 247.705 825.319 248.344 825.319 249.433V250.916C825.319 252.017 825.219 252.668 825.018 252.869C824.818 253.056 824.167 253.15 823.066 253.15H821.639C820.538 253.15 819.887 253.056 819.686 252.869C819.499 252.668 819.405 252.017 819.405 250.916Z" fill="#0D1B2A"/>
<path d="M843.492 231.596C843.492 229.456 844.087 228.067 845.276 227.428C846.478 226.778 848.023 226.452 849.914 226.452H864.295C866.198 226.452 867.75 226.778 868.951 227.428C870.153 228.067 870.754 229.456 870.754 231.596V247.893C870.754 250.121 870.178 251.573 869.026 252.249C867.887 252.925 866.31 253.263 864.295 253.263H849.914C847.898 253.263 846.321 252.925 845.182 252.249C844.056 251.561 843.492 250.109 843.492 247.893V231.596ZM848.449 231.033V248.682H865.797V231.033H848.449Z" fill="#0D1B2A"/>
<path d="M877.682 253V226.715H895.368C897.271 226.715 898.823 227.04 900.024 227.691C901.226 228.33 901.827 229.719 901.827 231.859V238.205C901.827 239.019 901.689 239.732 901.414 240.346C901.151 240.959 900.75 241.472 900.212 241.885C899.674 242.286 898.998 242.586 898.184 242.786C897.383 242.987 896.445 243.087 895.368 243.087H882.639V253H877.682ZM882.639 238.506H894.88C895.543 238.506 896.038 238.381 896.363 238.13C896.701 237.88 896.87 237.379 896.87 236.628V233.174C896.87 232.51 896.701 232.035 896.363 231.747C896.038 231.446 895.543 231.296 894.88 231.296H882.639V238.506Z" fill="#0D1B2A"/>
<path d="M907.091 253V226.715H930.335V231.296H912.048V237.229H923.088V241.81H912.048V248.419H930.71V253H907.091Z" fill="#0D1B2A"/>
<path d="M936.537 253V226.715H954.223C956.126 226.715 957.678 227.04 958.88 227.691C960.081 228.33 960.682 229.719 960.682 231.859V237.886C960.682 239.513 960.144 240.734 959.067 241.547C958.003 242.361 956.389 242.768 954.223 242.768H952.59L963.029 253H956.364L945.944 242.768H941.494V253H936.537ZM941.494 238.187H953.735C954.399 238.187 954.893 238.061 955.218 237.811C955.556 237.561 955.725 237.06 955.725 236.309V233.174C955.725 232.51 955.556 232.035 955.218 231.747C954.893 231.446 954.399 231.296 953.735 231.296H941.494V238.187Z" fill="#0D1B2A"/>
<path d="M964.685 253L978.166 226.715H982.071L995.739 253H989.881L986.746 246.879H973.265L970.13 253H964.685ZM975.575 242.373H984.436L980.005 233.756L975.575 242.373Z" fill="#0D1B2A"/>
<path d="M1004.1 253V231.296H993.663V226.715H1019.5V231.296H1009.06V253H1004.1Z" fill="#0D1B2A"/>
<path d="M1023.63 253V226.715H1046.87V231.296H1028.58V237.229H1039.62V241.81H1028.58V248.419H1047.25V253H1023.63Z" fill="#0D1B2A"/>
<path d="M1064.66 253V226.715H1082.05C1083 226.715 1083.87 226.79 1084.66 226.94C1085.45 227.078 1086.12 227.36 1086.69 227.785C1087.26 228.198 1087.71 228.78 1088.02 229.531C1088.34 230.282 1088.51 231.259 1088.51 232.46V234.281C1088.51 235.633 1088.21 236.735 1087.62 237.586C1087.04 238.437 1086.13 239.044 1084.92 239.407C1086.27 239.72 1087.25 240.358 1087.87 241.322C1088.49 242.273 1088.81 243.537 1088.81 245.115V247.105C1088.81 248.344 1088.64 249.351 1088.32 250.127C1088.01 250.891 1087.56 251.485 1086.99 251.911C1086.42 252.337 1085.75 252.625 1084.96 252.775C1084.17 252.925 1083.3 253 1082.35 253H1064.66ZM1069.62 248.419H1081.86C1082.52 248.419 1083.02 248.269 1083.34 247.968C1083.68 247.668 1083.85 247.199 1083.85 246.56V243.65C1083.85 242.912 1083.68 242.417 1083.34 242.167C1083.02 241.904 1082.52 241.773 1081.86 241.773H1069.62V248.419ZM1069.62 237.323H1081.56C1082.22 237.323 1082.72 237.198 1083.04 236.947C1083.38 236.685 1083.55 236.184 1083.55 235.445V233.155C1083.55 232.516 1083.38 232.047 1083.04 231.747C1082.72 231.446 1082.22 231.296 1081.56 231.296H1069.62V237.323Z" fill="#0D1B2A"/>
<path d="M1094.8 253V226.715H1118.05V231.296H1099.76V237.229H1110.8V241.81H1099.76V248.419H1118.42V253H1094.8Z" fill="#0D1B2A"/>
<path d="M1131.79 253V231.296H1121.35V226.715H1147.18V231.296H1136.74V253H1131.79Z" fill="#0D1B2A"/>
<path d="M1159.11 253V231.296H1148.67V226.715H1174.5V231.296H1164.06V253H1159.11Z" fill="#0D1B2A"/>
<path d="M1178.63 253V226.715H1201.88V231.296H1183.59V237.229H1194.63V241.81H1183.59V248.419H1202.25V253H1178.63Z" fill="#0D1B2A"/>
<path d="M1208.08 253V226.715H1225.76C1227.67 226.715 1229.22 227.04 1230.42 227.691C1231.62 228.33 1232.22 229.719 1232.22 231.859V237.886C1232.22 239.513 1231.68 240.734 1230.61 241.547C1229.54 242.361 1227.93 242.768 1225.76 242.768H1224.13L1234.57 253H1227.9L1217.48 242.768H1213.03V253H1208.08ZM1213.03 238.187H1225.28C1225.94 238.187 1226.43 238.061 1226.76 237.811C1227.1 237.561 1227.27 237.06 1227.27 236.309V233.174C1227.27 232.51 1227.1 232.035 1226.76 231.747C1226.43 231.446 1225.94 231.296 1225.28 231.296H1213.03V238.187Z" fill="#0D1B2A"/>
<path d="M1239.17 250.916V249.433C1239.17 248.356 1239.26 247.724 1239.45 247.536C1239.65 247.336 1240.3 247.236 1241.4 247.236H1242.83C1243.93 247.236 1244.58 247.33 1244.78 247.518C1244.98 247.705 1245.08 248.344 1245.08 249.433V250.916C1245.08 252.017 1244.98 252.668 1244.78 252.869C1244.58 253.056 1243.93 253.15 1242.83 253.15H1241.4C1240.3 253.15 1239.65 253.056 1239.45 252.869C1239.26 252.668 1239.17 252.017 1239.17 250.916Z" fill="#0D1B2A"/>
</g>
</svg>
