<svg width="823" height="164" viewBox="0 21 1248 248" fill="none" xmlns="http://www.w3.org/2000/svg">
<path d="M0 21H122C194 21 252 79 252 145C252 211 194 269 122 269H0L34 223H122C165 223 203 187 203 145C203 103 165 67 122 67H34L0 21Z" fill="#D4A017"/>
<path d="M12 122.07H97.3731L71.9254 94H126.104L177 144L126.104 194H71.9254L97.3731 165.93H12V122.07Z" fill="#D4A017"/>
<path d="M314 2C314 0.89543 313.105 0 312 0C310.895 0 310 0.89543 310 2V288C310 289.105 310.895 290 312 290C313.105 290 314 289.105 314 288V2Z" fill="#D4A017"/>
<g transform="translate(-55.61, 0)">
<path d="M450.62 155.37H480C484.16 155.37 487.8 154.893 490.92 153.94C494.04 152.987 496.64 151.47 498.72 149.39C500.8 147.267 502.36 144.537 503.4 141.2C504.44 137.82 504.96 133.725 504.96 128.915C504.96 124.278 504.418 120.357 503.335 117.15C502.295 113.943 500.713 111.343 498.59 109.35C496.51 107.313 493.91 105.862 490.79 104.995C487.713 104.085 484.117 103.63 480 103.63H450.62V155.37ZM427.61 175V84H483.9C490.313 84 496.25 84.9317 501.71 86.795C507.213 88.6583 511.958 91.475 515.945 95.245C519.932 99.015 523.052 103.76 525.305 109.48C527.558 115.157 528.685 121.83 528.685 129.5C528.685 137.647 527.493 144.602 525.11 150.365C522.77 156.128 519.585 160.83 515.555 164.47C511.525 168.11 506.78 170.775 501.32 172.465C495.86 174.155 490.053 175 483.9 175H427.61Z" fill="white"/>
<path d="M548.215 175V84H633.69V103.305H571.225V119.425H608.6V137.69H571.225V155.695H634.99V175H548.215Z" fill="white"/>
<path d="M653.544 102.07C653.544 95.0067 655.472 90.0883 659.329 87.315C663.186 84.4983 669.122 83.09 677.139 83.09H720.494C728.554 83.09 734.512 84.4983 738.369 87.315C742.226 90.0883 744.154 95.0067 744.154 102.07V114.355L721.144 118.58V103.11H676.554V155.89H721.664V138.73L744.674 143.215V156.15C744.674 163.56 742.789 168.717 739.019 171.62C735.249 174.48 729.226 175.91 720.949 175.91H677.139C668.862 175.91 662.861 174.48 659.134 171.62C655.407 168.717 653.544 163.56 653.544 156.15V102.07Z" fill="white"/>
<path d="M765.305 175V84H788.315V175H765.305Z" fill="white"/>
<path d="M816.79 102.07C816.79 95.0067 818.718 90.0883 822.575 87.315C826.432 84.4983 832.368 83.09 840.385 83.09H888.55C896.61 83.09 902.568 84.4983 906.425 87.315C910.282 90.0883 912.21 95.0067 912.21 102.07V108.115L889.2 112.73V102.395H839.8V156.605H889.59V139.77H864.5V121.505H912.6V156.15C912.6 163.56 910.715 168.717 906.945 171.62C903.175 174.48 897.173 175.91 888.94 175.91H840.385C832.108 175.91 826.107 174.48 822.38 171.62C818.653 168.717 816.79 163.56 816.79 156.15V102.07Z" fill="#D4A017"/>
<path d="M935.407 175V84H1020.88V103.305H958.417V119.425H995.792V137.69H958.417V155.695H1022.18V175H935.407Z" fill="#D4A017"/>
<path d="M1042.05 175V84H1059.47L1119.01 141.005V84H1140.33V175H1122.91L1063.37 118.45V175H1042.05Z" fill="#D4A017"/>
<path d="M1189.43 175V104.41H1154.85V84H1247.08V104.41H1212.44V175H1189.43Z" fill="#D4A017"/>
<text x="422.755" y="253" fill="white" font-family="'Helvetica Neue', Arial, Helvetica, sans-serif" font-size="26" font-weight="300" textLength="822.325" lengthAdjust="spacingAndGlyphs">AKILLI KARAR. GÜÇLÜ OPERASYON.</text>
</g>
</svg>
